<?xml version="1.0" encoding="utf-8"?>
<!-- Generator: Adobe Illustrator 22.0.1, SVG Export Plug-In . SVG Version: 6.00 Build 0)  -->
<svg version="1.1" id="Calque_1" xmlns="http://www.w3.org/2000/svg" xmlns:xlink="http://www.w3.org/1999/xlink" x="0px" y="0px"
	 viewBox="0 0 532.4 331.3" style="enable-background:new 0 0 532.4 331.3;" xml:space="preserve">
<style type="text/css">
	.st0{fill:#9FCB3A;}
	.st1{fill:#2DB24A;}
	.st2{fill:#DA1D45;}
	.st3{fill:#FAB017;}
	.st4{fill:#231F20;}
	.st5{fill:#E8EAEA;}
	.st6{fill:#FFFFFF;}
</style>
<g>
	<path class="st0" d="M282.1,258.1c-8.5-2.1-19,3.6-25.7,8.4c-3,2.2-2.3,7.7,2,7.5c6.7-0.2,12.2-3.7,18.4-5.8
		c4.3-1.5,3.7-8.1-1.1-8.1c-4.5,0-9-0.2-13.5-0.3c0.7,2.7,1.5,5.5,2.2,8.2c6.8-4.7,10.7-12.5,17.4-17.1c3.3-2.3,2.8-7.1-1.1-8.4
		c-4.9-1.6-9.6-2.1-14.7-2.1c0,3.1,0,6.2,0,9.3c0.6,0,1.3,0,1.9,0c-0.4-3-0.8-6.1-1.2-9.1c-3.7,1.5-11.1,5.2-6.2,10.2
		c1,1.1,2.5,1.6,3.9,1.9c0.9,0.2,1.8,0.3,2.7,0.4c0,0,2.4,0.8,1.4,0.2c1.8,1,4.4-0.3,4.2-2.4c-0.1-2.2-0.8-3.9-2.6-5.3
		c-0.9-0.7-1.7-1.2-2.8-1.6c-0.3-0.1-0.6-0.2-0.9-0.3c-2.2-0.8,1.3,0.5,1.8,2.5c0,0.8,0,1.6,0,2.5c-1.9,2.1-2.3,2.7-1.2,1.9
		c0.7-0.4,1.4-0.7,2.1-1c4.6-1.9,4.4-9.1-1.2-9.1c-0.6,0-1.3,0-1.9,0c-6,0-6,9.3,0,9.3c4.4,0,8.1,0.4,12.2,1.7
		c-0.4-2.8-0.7-5.6-1.1-8.4c-6.7,4.8-10.5,12.7-17.2,17.5c-3.4,2.4-2.4,8.2,2.2,8.2c4.5,0,9-0.2,13.5-0.3c-0.4-2.7-0.7-5.4-1.1-8.1
		c-5.3,1.9-10.5,5.5-16.2,5.7c0.7,2.5,1.4,5,2,7.5c3.7-2.7,7.7-4.9,12-6.5c3.8-1.4,7.5-2.2,10.6-5
		C284.4,260.9,283.7,258.5,282.1,258.1L282.1,258.1z"/>
	<path class="st0" d="M229.9,278.3c0.3-1.6,0.9-3.5,0.5-5c-0.5-1.8-1.9-3.7-3-5.2c-2.8-3.8-6.1-6.9-9.8-9.7
		c-4.7-3.6-10.5-6-16.1-7.8c-9.2-3-19.6-4.7-29.3-3.7c-9.3,0.9-18.9,5.2-19.3,15.9c-0.2,5.2,2.4,11.2,5.5,15.2
		c3.6,4.8,8.7,7.6,14.2,9.7c9.3,3.5,19.8,4.1,29.6,4.1c9,0,18.2-0.8,27-2.9c4.5-1.1,4.9-6.2,2.5-9.3c-8.5-10.6-20.6-17.6-33.2-21.6
		c-11.9-3.8-25.9-4.9-37.3,1.1c-2.6,1.4-4,5.6-2.1,8.1c12.6,17,37.8,17.9,57,20.2c2.6,0.3,5.1-2,5.7-4.3c0.8-2.7-0.5-5.1-2.7-6.7
		c-15.1-10.8-33-24-52.6-17.9c-4.5,1.4-6.2,8.4-1.4,10.7c8.9,4.3,18,6.9,27.9,6.6c3.7-0.1,5.9-5.8,2-7.5c-7.9-3.5-16.3-5.5-24.1-9.3
		c-0.5,3.6-0.9,7.2-1.4,10.7c16-5,31.4,8.1,43.5,16.7c1-3.7,2-7.3,3-11c-8.5-1-16.9-1.9-25.3-3.8c-7.5-1.7-17-4.5-21.5-10.6
		c-0.7,2.7-1.4,5.4-2.1,8.1c8.4-4.5,19.8-2.7,29,0.2c10.4,3.3,20.7,9.3,27.5,17.9c0.8-3.1,1.6-6.2,2.5-9.3c-10.5,2.6-22,3-33.4,2.2
		c-5.9-0.4-11.7-1.4-17.2-3.4c-4.6-1.6-7.4-3.9-9.5-7.8c-0.7-1.2-0.9-1.7-1.3-2.8c-0.2-0.5-0.3-1.1-0.5-1.6c0-0.2-0.3-1.9-0.1-0.5
		c-0.1-0.5,0.1-3.1-0.1-1.6c0.1-0.4,0.2-0.8,0.3-1.1c0.3-0.9-0.6,1,0.2-0.4c0.7-1.1-0.8,0.9,0-0.1c0.3-0.3,0.5-0.5,0.8-0.8
		c-1.1,1,0.8-0.4,1.2-0.7c0.2-0.1,1.5-0.7,0.3-0.1c0.4-0.2,0.9-0.3,1.3-0.4c1.1-0.3,2.2-0.6,3.3-0.8c1.7-0.3-1.1,0.1,0.6-0.1
		c0.5-0.1,1.1-0.1,1.6-0.1c1.1-0.1,2.2-0.1,3.4-0.1c2.6,0,5.1,0.2,7.6,0.4c1.6,0.2,3.9,0.6,6.2,1c2.4,0.5,4.7,1.1,7.1,1.8
		c0.8,0.2,1.6,0.5,2.4,0.8c0.4,0.1,2.9,1.1,1.8,0.6c2.8,1.2,5.6,2.5,8.2,4c3.1,1.9,5.9,4.3,8.4,6.9c1,1.1,2.1,2.2,3,3.4
		c1.3,1.7,2.8,2,4.7,2.8C227.7,280.2,229.5,279.9,229.9,278.3L229.9,278.3z"/>
	<path class="st0" d="M238.5,278.6c3.9-14.2,14-25.4,26.7-32.6c6.7-3.8,13.8-5.5,21.4-5.9c3.1-0.2,6.2,0,9.3,0.8
		c1.2,0.3,1.8,0.6,2.8,1.1c0,0,1.4,1,0.7,0.4c0.2,0.1,1.4,1.5,0.9,0.8c0.3,0.4,0.5,0.8,0.7,1.2c-0.5-0.9,0.1,0.4,0.1,0.6
		c0.4,1.4,0-1,0.1,0.6c0,0.5,0,1-0.1,1.6c-0.1,1.3-1.7,4.3-2.9,6.1c-3.8,5.9-9.6,10.1-15.9,13c-13,6-29.1,8-43.2,6.3
		c1.5,2.6,3,5.2,4.5,7.8c5.7-9,14.3-16.3,23.2-21.9c8.9-5.5,20-10,30.4-6.4c-0.4-3.2-0.8-6.4-1.3-9.7c-15.9,7.9-32.2,15.1-48.1,23.1
		c-5.4,2.7-1.6,11.4,4.1,9.7c14.4-4.2,27.9-11.2,42.3-15.4c-1.4-3.2-2.7-6.5-4.1-9.7c-2.9,1.9-6.1,3.4-9.1,5.2
		c-3.4,2.2-6,4.1-8.5,7.3c-1.9,2.5,1.2,5.5,3.8,4.9c6.7-1.6,13.3-4.5,19.1-8.3c4.9-3.2,1.9-11.5-4.1-9.7
		c-14.4,4.2-27.9,11.2-42.3,15.4c1.4,3.2,2.7,6.5,4.1,9.7c15.9-7.9,32.1-15.1,48-23.1c4.4-2.2,2.7-8.3-1.3-9.7
		c-12.8-4.4-26.7,0.4-37.8,7.1c-10.8,6.4-20.9,15.5-27.7,26.2c-2.3,3.7,0.8,7.4,4.5,7.8c14.8,1.7,30.9-0.7,44.8-6.2
		c12.6-5,25.7-15.4,27.6-29.6c0.7-5.5-2.3-10.4-6.6-13.5c-5.3-3.9-13-4.1-19.2-3.7c-16.4,1-30.9,8.7-41.8,20.9
		c-6.5,7.2-12.3,17-11.8,27C232.1,281.4,237.5,282.3,238.5,278.6L238.5,278.6z"/>
	<path class="st1" d="M233.2,131.6c-4,30-6,60.5-6.9,90.8c-0.5,15.6-0.1,31.4,1.6,47c1.4,13.7,3.4,28.8,9.6,41.4
		c1.4,2.8,3.6,4.2,6.4,5.3c2.1,0.8,4.1-0.8,4.8-2.7c2.2-6.2-1.9-13-3.5-19c-1.9-6.7-3.2-13.6-4.2-20.4c-2.2-15.1-2.7-30.4-2.7-45.6
		c-0.1-16.1,0.1-32.2,0.4-48.3c0.3-14.5,0.9-29.2-0.6-43.7c-0.2-1.5-0.3-3.1-0.6-4.6C237.1,128.9,233.6,128.9,233.2,131.6
		L233.2,131.6z"/>
	<path class="st2" d="M141.6,74.5c0.2,0.3,2.8,3.6,1.4,1.8c1.2,1.6,2.3,3.3,3.8,4.7c3,2.7,6.3,5.5,9.6,7.8c5.5,3.8,11,7.5,16.4,11.4
		c5.5,3.9,11.2,7.5,16.8,11.4c5.4,3.8,10.6,8,16.5,11.1c7.2,3.9,16.1,3.1,22.1-2.8c6.4-6.4,7.8-19.5,0-25.7
		c-11.6-9.3-25.3-16-38.7-22.4c-6.8-3.3-13.8-6.1-20.8-9c-6.6-2.8-13.6-3.5-20.6-3.7c-3.2-0.1-6.3,1.8-7.9,4.5
		C137.9,67.3,139,71.2,141.6,74.5L141.6,74.5z"/>
	<path class="st2" d="M190.6,36.2c0,0.4,0,0.8,0,1.1c0.5-1.9,1-3.7,1.5-5.6c-2.2,4.9-2.1,8.6-1.3,13.7c0.5,2.8,1,5.7,1.8,8.5
		c1.7,5.9,3.1,11.8,4.9,17.6c3.8,12.6,7.2,25.5,12.5,37.6c3.2,7.4,13.5,10.4,20.8,8.4c9.9-2.7,15.2-12.9,12.8-22.6
		c-1.3-5.4-3.5-10.7-5.4-15.9c-2.4-6.8-5.2-13.4-8.2-19.9c-2.5-5.6-5.4-10.8-8.6-16.1c-3.7-6.1-9.3-14.7-16.8-16.5
		c1.6,1,3.3,1.9,4.9,2.9c-0.3-0.2-0.6-0.5-1-0.7c-3.1-2.4-6.3-3.8-10.3-2.7C193.8,27.3,190.5,31.5,190.6,36.2L190.6,36.2z"/>
	<path class="st2" d="M253.8,35.8c-0.3,0.3-0.5,0.6-0.8,0.9c2.6-1.1,5.2-2.1,7.8-3.2c-4,0.3-6.6,1.3-9.6,4c-1.3,1.2-2.6,3.3-3.7,4.8
		c-1.8,2.4-3.2,4.7-4.6,7.4c-2.9,5.7-5.7,11.5-8.3,17.4c-2.6,5.6-5.1,11.2-7.6,16.8c-3.5,7.8-8.3,15.8-5.4,24.6
		c3.2,9.8,14.9,15.9,24.4,9.9c5.3-3.3,8.3-7.4,10.1-13.3c0.7-2.4,1.5-4.8,2.3-7.2c1.9-5.8,3.8-11.6,5.7-17.4c2-6.1,4-12.3,5.9-18.5
		c1.1-3.8,1.9-7.5,2.3-11.5c0.5-5.3,0.3-9.5-3.6-13.8c1.1,2.6,2.1,5.2,3.2,7.8c0-0.4,0-0.8,0-1.2C272,34.3,260,29,253.8,35.8
		L253.8,35.8z"/>
	<path class="st2" d="M300.6,63.9c-13.9,3.1-26,9.8-37.9,17.2c-5.4,3.4-10.8,6.8-16.2,10.2c-6.5,4.1-14.7,7.8-18.3,14.9
		c-4.9,9.9,1,21.7,12.6,21.9c8.1,0.2,14.4-4.8,20.8-9c5.6-3.7,11.2-7.5,16.8-11.1c5.5-3.6,11.1-7.1,16.4-11
		c5.9-4.4,11.5-8.9,17.1-13.7c3.9-3.4,4.3-9.8,1.8-14.1C311,64.6,305.7,62.8,300.6,63.9L300.6,63.9z"/>
	<path class="st2" d="M317.1,120.7c-0.4-0.2-0.8-0.4-1.2-0.7c1.6,1.6,3.2,3.2,4.7,4.7c-3.7-6.8-12.4-9.6-19.5-11.4
		c-6.4-1.6-13.1-2-19.6-2.7c-9.8-1-19.6-2-29.4-3.3c1.7,0.2,3.4,0.5,5.1,0.7c-0.8-0.1-1.5-0.2-2.3-0.3c-4.3-0.7-7.3-1-11.7-0.1
		c-6.3,1.3-11.6,7.2-13.2,13.2c-2.3,8.2,1.4,17,8.7,21.4c5.9,3.5,14.1,3.6,20.9,4c5.5,0.3,11,0.4,16.6,0.5
		c5.9,0.2,11.9,0.8,17.8,0.5c8.3-0.4,18.4-0.3,24.6-6.5c-1.9,1.1-3.9,2.3-5.8,3.4c0.4-0.1,0.8-0.2,1.3-0.3
		C325.2,141.7,326.2,126,317.1,120.7L317.1,120.7z"/>
	<path class="st2" d="M282.3,167.8c-0.1,0.8-0.3,1.5-0.4,2.3c0.2-1.4,0.4-2.8,0.6-4.2c-0.2,1.8-0.9-9.7-0.4-2
		c-0.2-3.1-0.9-5.8-2-8.6c-1.8-4.8-4.3-9.4-6.4-14.1c-1.7-3.8-3.8-7.4-5.6-11.2c-0.4-0.8-0.8-1.7-1.1-2.6c3.4,7.9-1.8-4.5-1.4-3.3
		c-1.8-4.3-4.5-7.1-8.3-9.9c-9.2-6.6-22.9,0.2-25.5,10.4c-3,11.6,5.5,23.8,11.4,33.3c2.7,4.4,6.3,8.3,9.5,12.4
		c1.7,2.2,4.4,4.5,6.7,6c2.4,1.5-2.6-2.3-0.4-0.5c1.7,1.7,3.7,2.9,6.1,3.5c1.2,0.4,0.8,0.2-1.3-0.7c3.9,2.2,8.6,2.3,12.5,0
		C279.6,176.4,282.8,172,282.3,167.8L282.3,167.8z"/>
	<path class="st2" d="M238.4,177.4c0.2-0.4,0.3-0.7,0.5-1.1c-1.2,2-2.3,4-3.5,5.9c0.2-0.2,0.4-0.4,0.6-0.7c-2.1,1.2-4.2,2.5-6.3,3.7
		c0.1,0,0.2-0.1,0.4-0.1c4.9-1.1,9.9-5.9,10.8-10.8c-1.4,2.9-1.2,2.1,0.8-2.3c0.2-1.2,0.5-2.4,0.7-3.6c0.7-3.1,0.9-6.3,1.2-9.4
		c0.1-0.8,0.2-1.6,0.3-2.5c-0.6,4.9-0.1,0.7,0.1-0.3c0.3-2.4,0.7-4.8,1.1-7.1c0.7-3.9,1.4-7.7,2-11.6c0.9-5.1,2.5-10.6,1.8-15.8
		c0-3.1-0.8-5.9-2.3-8.6c-2.2-3.8-5.9-6.7-10.2-7.8c-7.2-2-15.5,1.2-19.2,7.8c-5.1,9.2-5.6,21.1-6.7,31.3c-0.5,4.4-0.8,8.9-1,13.3
		c-0.1,2.1-0.3,4.1-0.2,6.2c0.1,1.2,0.2,2.5,0.3,3.7c0.4,3.7,1.2,5.8,2.6,9.2c-0.7-2.6-1.4-5.3-2.1-7.9c0,0.4,0.1,0.8,0.1,1.2
		c0.8,7,4.2,12.9,11.4,15c0.1,0,0.2,0.1,0.3,0.1c-2.1-1.2-4.2-2.5-6.3-3.7c0.2,0.2,0.4,0.4,0.6,0.7c-1.2-2-2.3-4-3.5-5.9
		c0.1,0.4,0.3,0.7,0.4,1.1c2,5.5,6.4,9.6,12.5,9.6C232.3,187,236.1,182.8,238.4,177.4L238.4,177.4z"/>
	<path class="st2" d="M189.3,173.6c3.5-2.4,6.4-5,9.4-8.1c2-2,3.6-4.5,5.3-6.8c0.6-0.8,1.2-1.6,1.8-2.5c0.5-0.7,3.4-4.5,0.8-1.1
		c1.9-2.4,3.7-4.8,5.5-7.3c2.2-2.9-2.1,2.6,0.2-0.2c0.6-0.8,1.3-1.6,1.9-2.4c2.7-3.3,5.6-6.4,8.4-9.6c5.6-6.3,6.2-15.7,0-21.9
		c-6.2-6.2-15.7-5.7-21.9,0c-6.9,6.3-12.3,14.6-17.3,22.3c-2.4,3.7-4.5,7.6-6.7,11.4c-1.3,2.3-2.1,5.1-3.1,7.6
		c-0.3,0.8-0.6,1.6-1,2.3c-0.5,4.1-0.6,4.6-0.2,1.6c-0.1,0.5-0.2,1-0.3,1.5c-0.9,4.1-0.1,8.2,3,11.3
		C178.7,175.3,185,176.5,189.3,173.6L189.3,173.6z"/>
	<path class="st2" d="M144.6,135.8c-2.1-1-2.6-1.2-1.4-0.6c2.8,1.5,5.4,2.1,8.5,2.1c2.9,0,5.2-0.1,8.2-0.5c3.7-0.5,7.4-1.2,11.1-1.9
		c7.5-1.4,15-3,22.5-4.1c-1.7,0.2-3.5,0.5-5.2,0.7c2.7-0.4,5.3-0.6,8-0.9c4.3-0.4,9.3-0.1,13.3-1.7c3.2-0.9,6-2.5,8.4-4.9
		c3.6-3.6,5.6-8.4,5.6-13.5c0-8.8-5.9-15.7-14-18.3c-7.5-2.5-16.6-0.4-24.2,0.7c-5.5,0.8-10.9,2-16.2,3.6
		c-6.2,1.9-12.1,4.3-17.9,7.2c-6.2,3.1-13.9,8.3-15.3,15.7c1.2-2,2.3-4,3.5-6c-0.2,0.2-0.4,0.5-0.6,0.7c-3,3.7-4.7,7.8-3.4,12.7
		C136.6,130.7,140.2,135.2,144.6,135.8L144.6,135.8z"/>
	<path class="st3" d="M257.6,129.6c1.2-1.7,2.3-3.5,3.2-5.6c6.7-15.2,0.3-36.7-16.4-42.5c-16.9-5.9-39.4-0.1-50.5,14.1
		c-12.1,15.5-3,32.3,12.3,40.1C223,144.1,246.2,145.5,257.6,129.6z"/>
</g>
<g>
	<g>
		<path class="st3" d="M352.7,50.7c0.4-1.6,1-3.3,1.8-4.9c3-5.6,7.5-9,13-6.8c1.9,0.8,3.7,2,5.3,3.5c3.3,3,6.2,7.3,8,11.7
			c0.6,1.4,1.1,2.9,1.5,4.3c0.7,2.7,1.1,5.4,0.9,8.2c-0.1,1.1-0.2,2.3-0.5,3.4c-0.6,2.8-0.7,5.1-2.9,6.5c-5,3.1-11.3,2.6-16.6,0.9
			c-3.6-1.2-6.1-3.5-7.7-6.8c-0.7-1.3-1.2-2.8-1.6-4.5c-0.4-1.7-0.8-3.3-1.1-5C352.1,57.6,351.9,54.1,352.7,50.7z"/>
		<path class="st4" d="M352.8,61.2c0.1-0.1,0.1-0.2,0.2-0.3c5.5-6.5,13.9-9.4,21.5-8.4c1.8,0.2,4.1,0.8,6.4,1.7
			c0.6,1.4,1.1,2.9,1.5,4.3c0.7,2.7,1.1,5.4,0.9,8.2c-4.8-4.3-12.8-4.4-18.3-3.1c-3.2,0.8-6,2-8.1,5.2c-0.4,0.5-0.9,1.2-1.4,1.9
			c-0.7-1.3-1.2-2.8-1.6-4.5S353.1,62.8,352.8,61.2z"/>
		<path class="st4" d="M352.7,50.7c0.4-1.6,1-3.3,1.8-4.9c3-5.6,7.5-9,13-6.8c1.9,0.8,3.7,2,5.3,3.5c-4.1-0.2-8.7,0.9-11.8,2.2
			C357.6,46.2,355,48.1,352.7,50.7z"/>
		<path class="st4" d="M358.5,35c0.1,0.8,0.6,1.9,0.9,2.8c0.3,1,0.6,2,1,3c0.5,1.2,1.9,0.5,1.6-0.8c-0.3-1-0.7-2.1-1.1-3.1
			s-0.7-2.2-1.6-2.6C358.8,34.1,358.4,34.5,358.5,35L358.5,35z"/>
	</g>
	<path class="st5" d="M358.3,57.6c-0.1,2.1,0.1,4.7-2.1,5c-1.4,0.2-2.9-1.1-4.2-1.5c-2.9-1-5.7-2.3-8.4-3.7
		c-2.9-1.6-6.2-3.3-8.2-6.5c-3.5-5.8-0.7-13.3,5.2-14.3c5.4-0.9,11.5,3.9,14,9.4c1.2,2.5,2.2,5.2,3,7.9
		C358.1,55.1,358.4,56.3,358.3,57.6z"/>
	<path class="st5" d="M373.1,54.6c0.1,8.7,7.9,3.7,11.5,1.6c2.8-1.6,5.6-3.6,7.9-6.1c0.3-0.4,0.7-0.7,1-1.1c3.3-3,4.6-8.4,2-12.6
		c-2.5-4-7.2-3.8-10.6-1.6c-0.5,0.3-1,0.7-1.4,1c-4.6,3.9-9.2,9.2-10.2,16c-0.1,0.5-0.2,0.9-0.2,1.3
		C373.1,53.8,373.1,54.2,373.1,54.6z"/>
	<path class="st6" d="M409.5,70.8c2.9-2.2,5.1-6.8,3.6-12c-0.6-2-1.7-3.9-3-5.3c-0.4-0.4-0.8-0.8-1.2-1.2c-1.7-1.4-3.5-2.3-5.2-2.8
		c-7.3-1.9-14.5,0.6-20.7,3.9c-3,1.6-7.3,4.3-8.4,8.7c-2.2,8.6,5.8,8.7,9.5,9.8c1.7,0.5,3.3,0.9,5,1.1c0.5,0.1,1.1,0.2,1.6,0.2
		c4.9,0.5,10,1.3,14.5-0.1c0.5-0.2,1-0.4,1.5-0.6s1-0.5,1.5-0.8C408.6,71.6,409,71.2,409.5,70.8z"/>
	<path class="st6" d="M344.8,77.8c-6.3,1.1-21.8,0.3-21-11.3c0.7-9.2,8-13.2,14.9-12.7c4.7,0.3,9.4,2.3,13.8,4.3
		c2.5,1.2,5.2,2.5,7.2,4.8c1.1,1.3,1.8,3.3,1.5,5.3c-0.5,2.7-2,3.3-3.8,4.3c-1.3,0.8-2.5,1.8-3.9,2.5
		C350.8,76.5,347.8,77.3,344.8,77.8z"/>
	<g>
		<path class="st4" d="M354.1,83c-0.9,4-0.8,8.7,0.7,12.5c1.8,4.4,5.8,6.7,9.6,7.8c9.2,2.5,19.8-2.7,22-14.3c0.9-4.6,0-9.9-2.8-13.4
			c-2.2-2.7-5.3-4.4-8.4-4.9c-4.1-0.6-9.8-1-13.5,1.3C358.2,74.2,355.1,78.4,354.1,83z"/>
		<g>
			<path class="st6" d="M379.6,91.5c4.2-1.1,5.4-7.5,3.3-11.5c-2.5-4.6-9-2.8-10.5,2c-1.1,3.6,0.2,7.4,3.1,8.9
				C377.1,91.7,378.5,91.8,379.6,91.5z"/>
			<path d="M378.7,80.6c-2.2-2.8-6-0.6-5.5,3.2c0.4,3.4,4.4,4.6,5.8,1.5C379.7,83.7,379.8,82,378.7,80.6z"/>
			<path class="st6" d="M376,81.6c-0.2-1.2-1.7-1.5-2.2-0.4c-0.4,0.9,0.1,2.1,1,2C375.5,83.1,376.2,82.5,376,81.6z"/>
		</g>
		<g>
			<path class="st6" d="M362.6,90.3c3.7-1,4.7-6.5,2.8-10c-2.1-4-7.8-2.4-9.1,1.7c-1,3.1,0.1,6.4,2.7,7.7
				C360.4,90.5,361.6,90.6,362.6,90.3z"/>
			<path d="M361.8,80.9c-1.9-2.4-5.2-0.5-4.8,2.8c0.4,2.9,3.8,4,5.1,1.3C362.7,83.6,362.7,82,361.8,80.9z"/>
			<path class="st6" d="M359.5,81.7c-0.2-1.1-1.5-1.3-1.9-0.3c-0.3,0.8,0.1,1.9,0.8,1.8C359,83.1,359.6,82.5,359.5,81.7z"/>
		</g>
		<path class="st4" d="M375.1,72.7c0.3-0.3,0.4-0.8,0.6-1.2c0.2-0.4,0.4-0.8,0.6-1.1c0.6-0.8,1.3-1.3,2-1.8s1.5-0.8,2.3-1
			c0.5-0.2,1.9-0.8,1.2-1.7c-0.6-0.7-1.8-0.1-2.5,0.2c-0.9,0.4-1.7,0.8-2.5,1.4s-1.4,1.3-2,2.2c-0.5,0.8-1,2-0.6,2.9
			C374.4,73,374.8,73,375.1,72.7L375.1,72.7z"/>
		<path class="st4" d="M363.6,71.9c-0.2-1.4-1.5-2.4-2.4-3.1c-0.6-0.4-1.2-0.7-1.8-0.9c-0.7-0.3-1.5-0.5-2.2-0.3
			c-0.6,0.2-0.8,1.3-0.2,1.7c0.5,0.3,1.2,0.4,1.8,0.6c0.5,0.2,1,0.4,1.5,0.8c0.9,0.6,1.5,1.5,2.3,2.2
			C363.2,73.3,363.7,72.5,363.6,71.9L363.6,71.9z"/>
		<path class="st4" d="M357.3,66.9c-0.3-0.7-1.1-0.8-1.7-0.6c-0.8,0.3-1.3,1-1.4,1.9c-0.2,1.9,1.5,2.8,2.9,2.3
			c0.7-0.2,1.2-0.8,1.5-1.6c0.3-0.8,0-1.8-0.6-2.3c-1.2-0.9-2.9,0.4-3.3,1.9c-0.1,0.6,0.2,1.2,0.8,1.2c0.7,0,1.8,0,1.8-1.1
			s-1.2-0.8-1.8-0.8c0.3,0.4,0.5,0.8,0.8,1.2c0-0.2,0.1-0.4,0.4-0.5c0.2-0.1,0.1-0.1,0.4-0.2c0,0,0.3,0,0.2,0c0.2,0-0.1-0.1,0,0
			c-0.1-0.1-0.1-0.1-0.1-0.2c0.1,0.2,0-0.1,0,0.1c0-0.1,0,0.2,0,0.2c0-0.1-0.1,0.1-0.1,0.1c0.1-0.1-0.1,0.1-0.1,0.1
			s-0.2,0.1-0.3,0.2c-0.5,0.2-1,0.2-1-0.5s1-0.7,1.4-0.7C357.2,67.6,357.4,67.2,357.3,66.9L357.3,66.9z"/>
		<path class="st4" d="M383.1,65.6c-0.2-0.3-0.4-0.5-0.8-0.5c-0.3,0-0.6,0.1-0.8,0.3c-0.5,0.4-0.7,1-0.6,1.8
			c0.2,1.7,2.4,1.7,3.1,0.6c0.4-0.6,0.6-1.5,0.2-2.2c-0.5-0.9-1.4-0.9-2.2-0.8c-0.7,0.1-1.3,0.6-1.5,1.3c-0.2,0.6-0.1,1.2,0.2,1.7
			c0.4,0.7,1,1.2,1.7,1.1c0.9,0,1.5-1,1.7-2c0.1-0.4,0-0.9-0.4-1.1s-0.8-0.3-1.2-0.1c-0.2,0.1-0.3,0.3-0.4,0.4c0,0.1,0,0.1,0,0
			c0,0.1-0.1,0.1-0.1,0.2c-0.5,0.5,0,1.6,0.6,1.3c0.1-0.1,0.3-0.1,0.4-0.2c-0.1,0.1-0.3,0-0.4,0c0.1,0.1,0.2,0.1,0.3,0.1
			c-0.1-0.4-0.2-0.7-0.4-1.1c0,0.1-0.1,0.3-0.1,0.4c0.1-0.3-0.2,0.3,0,0.1c0,0,0,0.1-0.1,0.1c-0.1,0.1,0.2-0.1,0,0
			c-0.1,0-0.2,0.1,0,0h-0.1c0.3-0.1-0.2-0.1,0.1,0c-0.1,0-0.3-0.1-0.1,0c-0.1,0-0.2-0.1-0.2-0.2c0.2,0.2,0,0-0.1-0.1s0-0.1,0,0.1
			c0,0,0-0.1-0.1-0.1c0-0.1-0.1-0.2,0,0.1v-0.1c0-0.1,0,0.2,0,0c0,0.3,0,0.2,0,0.1c0-0.2-0.1,0.2,0,0.1c0-0.1,0-0.1-0.1,0.1
			c0,0,0.2-0.2,0,0l0.1-0.1c0.2-0.1-0.2,0.1,0,0c0.3-0.1,0.5-0.2,0.8-0.1c-0.1,0-0.1,0,0,0c0.2,0.1-0.1-0.1,0,0c0.2,0.1-0.1-0.1,0,0
			s-0.1-0.2,0,0c0-0.1-0.1-0.2,0-0.1c0,0.2,0-0.2,0,0c0,0,0,0,0,0.1c0-0.2,0-0.2,0,0.1c0-0.3-0.1,0.1,0-0.2c0,0,0,0.1-0.1,0.1
			c-0.1,0.2,0.1-0.1,0,0c0,0-0.2,0.2,0,0.1c-0.1,0-0.1,0.1-0.2,0.1c0.1-0.1-0.1,0-0.1,0c-0.2,0.1,0.1,0-0.1,0c-0.1,0-0.1,0-0.2,0
			c-0.2,0,0.1,0-0.1,0c0,0-0.1-0.1,0,0c-0.1-0.1,0.1,0.1,0,0s0,0.1,0,0c0-0.2,0,0.2,0,0c0,0,0-0.2,0,0c0-0.1,0-0.1,0-0.2
			c0,0.1,0,0,0,0s0.2-0.2,0.1-0.1l0.1-0.1c0.1-0.1,0.2,0,0.3-0.1c0.1,0,0.2-0.1,0.3-0.2c-0.1,0.1-0.1,0.1,0,0.1
			C383.1,66.1,383.2,65.8,383.1,65.6L383.1,65.6z"/>
		<path class="st3" d="M369.5,99.4c2.6-1.5,0.4-8-1.8-4.5C366.6,96.6,367.1,100.7,369.5,99.4z"/>
	</g>
</g>
</svg>
