<?xml version="1.0" encoding="utf-8"?>
<!-- Generator: Adobe Illustrator 22.0.1, SVG Export Plug-In . SVG Version: 6.00 Build 0)  -->
<svg version="1.1" id="Calque_1" xmlns="http://www.w3.org/2000/svg" xmlns:xlink="http://www.w3.org/1999/xlink" x="0px" y="0px"
	 viewBox="0 0 532.4 331.3" style="enable-background:new 0 0 532.4 331.3;" xml:space="preserve">
<style type="text/css">
	.st0{fill:#E8EAEA;}
	.st1{fill:#FFFFFF;}
	.st2{fill:#FAB017;}
	.st3{fill:#231F20;}
	.st4{fill:#FCB614;}
	.st5{fill:#F47E20;}
	.st6{fill:#2DB24A;}
	.st7{fill:#7BC153;}
	.st8{fill:#9FCB3A;}
</style>
<g>
	<path class="st0" d="M563.7-120.8c-6.2-3.9-11.1-9.7-17.7-13.8c-11.4-7-22.9-2.1-31.4,8.2c-18.5,22.4-5.8,52.1,24,50.7
		c20-0.9,32.1-7.2,49.6-16.9c5.3-2.9,12.3-7.1,15.9-11.9c7.9-10.4-4.3-7.7-12-7.4C582.6-111.6,571.6-115.9,563.7-120.8z"/>
	<path class="st0" d="M682.9-88.7c7.5,1.7,15.7,0.9,23.5,2.8c13.6,3.2,17,15.6,13.7,29.7c-7.1,30.9-41,44-59.6,20.6
		c-12.4-15.7-15.1-29.6-18.3-50.1c-1-6.2-2-14.6-0.3-21c3.8-13.8,9.5-2.6,14.4,3.4C662.4-95.8,673.4-90.8,682.9-88.7z"/>
	<path class="st1" d="M617.9-123.2c-1.7-19.8-6.5-41.2-16.3-58.9c-11.4-20.5-41.1-37.1-64.5-33.8c-24.3,3.3-37.6,28.3-35.9,51.1
		c1.8,24,25.2,42.9,45.3,52.8c9.7,4.8,20.5,8.6,31.2,10.2c13.9,2,23.9-2.6,36.4-8"/>
	<path class="st1" d="M646.9-106.1c16.2-28.6,61.7-81.4,100.3-57.1c13.1,8.3,20,27.1,17.8,42c-2.8,19.1-20.9,35.8-39.3,40.9
		c-28,7.7-67.1,4-85.5-21.4"/>
	<path class="st2" d="M645.6-41.4c-1.6,1.5-3.3,3.1-5.1,4.7c-10.8,9.4-25.3,18.6-39.2,15.8c-25.4-5.1-40.2-30.5-34-54.3l0,0
		c0.7-2.6,1.6-5.1,2.8-7.6c3.3-6.9,6.9-13.8,11.3-20.1c3.5-4.9,7.4-9.5,12-13.4c2.2-1.9,4.9-4,8-6.1c7.7-5.3,17.5-10.2,25.1-8.1
		l14,3.3c23.2,1.6,30,23.4,28.1,43c-0.5,5.2-1.7,10.3-3.3,14.8c-1.3,3.7-3.1,7.2-5.1,10.5C656.1-52.5,651-46.6,645.6-41.4z"/>
	<g>
		<path class="st3" d="M598.3-164.9c-2.7,9.9-2.5,21.5,2,30.9c5.2,11,16.9,16.5,28.3,19.2c26.8,6.3,57.9-6.7,64.3-35.4
			c2.5-11.2,0-24.6-8.1-33c-6.4-6.6-15.6-10.9-24.5-12c-11.9-1.5-28.7-2.5-39.6,3.3C610.4-186.5,601.4-176.1,598.3-164.9z"/>
		<g>
			<path class="st1" d="M673.2-143.7c12.4-2.7,15.8-18.5,9.5-28.4c-7.3-11.4-26.4-6.8-30.7,4.8c-3.2,8.8,0.5,18.3,9.2,22.1
				C665.7-143.3,669.7-143,673.2-143.7z"/>
		</g>
		<g>
			<path class="st1" d="M623.3-146.6c10.7-2.4,13.7-16.1,8.3-24.6c-6.3-9.8-22.9-5.9-26.6,4.2c-2.8,7.6,0.4,15.9,8,19.1
				C616.8-146.3,620.3-146,623.3-146.6z"/>
			<path class="st3" d="M610.5-161.3c1-0.1,1.8-0.5,2.8-0.9c1.1-0.4,2.4-0.5,3.5-0.3c1.2,0.2,2.4,0.7,3.4,1.3c1.2,0.7,2,1.6,3.3,2
				c1.1,0.4,2.5-0.9,2.1-2.1c-1.2-3.1-5.2-4.7-8.3-5.1c-2.7-0.3-7,1-7.8,3.8C609.3-161.9,609.8-161.2,610.5-161.3L610.5-161.3z"/>
			<path class="st3" d="M677.6-159.6c0.8-1.8-1-3.2-2.3-4.2c-1.6-1.2-3.7-1.7-5.7-1.8c-2-0.1-4.1,0.5-5.8,1.5
				c-1.5,0.9-3.7,2.9-3.5,4.7c0.1,0.9,1,1.6,1.9,1.1c1.3-0.7,1.9-2.3,3.2-3.1c1.3-0.8,2.8-1.1,4.3-1.2c1.5,0,3,0.5,4.3,1.2
				c1.2,0.7,1.8,1.9,3.2,2C677.3-159.3,677.6-159.4,677.6-159.6L677.6-159.6z"/>
		</g>
		<path class="st4" d="M624.5-131.3c1.1,2,4.3,3.1,6.3,3.8c2.7,0.9,5.6,1.4,8.4,1.4c5.3,0.1,11.6-1.8,14.4-6.7
			c1-1.7-1.7-3.3-2.6-1.5c-2.4,4.6-7.2,6-12.1,6c-2.6,0-5.1-0.4-7.6-1.2c-1.1-0.3-2.2-0.8-3.2-1.3c-1-0.5-1.8-1.2-2.9-1.5
			C624.6-132.5,624.2-131.8,624.5-131.3L624.5-131.3z"/>
		<path class="st3" d="M659.8-190.2c0.9-0.8,1.2-1.9,1.7-3c0.4-1,1.1-1.9,1.8-2.7c1.6-1.9,3.7-3.3,5.9-4.4c2.1-1.1,4.4-1.9,6.7-2.6
			c1.6-0.4,5.6-2,3.6-4.1c-1.7-1.7-5.4-0.3-7.2,0.4c-2.5,0.9-5,2-7.3,3.4c-2.3,1.4-4.2,3.2-5.8,5.4c-1.4,1.9-2.9,4.9-1.7,7.2
			C657.8-189.5,659.1-189.5,659.8-190.2L659.8-190.2z"/>
		<path class="st3" d="M626.3-192.3c-0.6-3.3-4.4-5.9-7.1-7.5c-1.6-1-3.4-1.7-5.2-2.3c-2-0.6-4.4-1.3-6.4-0.7
			c-1.8,0.5-2.4,3.2-0.5,4.2c1.6,0.8,3.4,0.9,5.2,1.4c1.6,0.5,3.1,1.1,4.5,1.9c2.6,1.4,4.3,3.6,6.7,5.4
			C624.9-188.8,626.6-190.8,626.3-192.3L626.3-192.3z"/>
		<path class="st3" d="M607.6-204.6c-1-1.8-3.3-1.9-5-1.4c-2.2,0.6-3.9,2.5-4.2,4.8c-0.6,4.8,4.5,6.8,8.4,5.7c2-0.6,3.5-1.9,4.3-3.9
			c0.9-2.1,0.1-4.4-1.7-5.6c-3.5-2.2-8.6,1-9.6,4.6c-0.4,1.5,0.7,3,2.3,3c1.9,0,5.2-0.1,5.2-2.8c0-2.7-3.6-2-5.2-2
			c0.8,1,1.5,2,2.3,3c0.1-0.5,0.4-0.9,1.1-1.3c0.5-0.3,0.4-0.2,1-0.4c0,0,0.8,0,0.5,0c0.6,0.1-0.4-0.2,0.1,0
			c-0.2-0.1-0.3-0.3-0.4-0.5c0.2,0.5,0-0.4,0,0.3c0-0.3-0.1,0.4-0.1,0.5c0.1-0.4-0.2,0.2-0.2,0.3c0.2-0.3-0.3,0.2-0.3,0.2
			c0,0-0.6,0.3-0.8,0.4c-1.4,0.5-2.9,0.4-3-1.2c0-1.9,2.9-1.7,4.1-1.8C607.5-202.7,608.1-203.8,607.6-204.6L607.6-204.6z"/>
		<path class="st3" d="M683.2-207.7c-0.6-0.7-1.2-1.2-2.2-1.2c-0.8,0-1.7,0.3-2.3,0.8c-1.4,1-2.1,2.6-1.9,4.3
			c0.6,4.3,6.9,4.1,9.2,1.4c1.3-1.5,1.7-3.7,0.5-5.4c-1.5-2.1-4.1-2.3-6.5-2c-2,0.3-3.7,1.4-4.5,3.3c-0.6,1.4-0.2,3.1,0.7,4.2
			c1.1,1.6,3,2.9,5.1,2.8c2.8-0.1,4.4-2.4,5-4.9c0.2-1-0.1-2.2-1.1-2.7c-1.3-0.6-2.3-0.8-3.6-0.2c-0.5,0.2-0.8,0.6-1.1,1
			c-0.1,0.2-0.1,0.2,0,0c-0.1,0.1-0.3,0.3-0.4,0.4c-1.5,1.2,0.1,3.9,1.9,3.2c0.4-0.1,0.8-0.3,1.1-0.5c-0.3,0.2-0.8,0.1-1.1,0
			c0.3,0.1,0.6,0.2,0.9,0.3c-0.4-0.9-0.7-1.8-1.1-2.7c-0.1,0.4-0.2,0.7-0.3,1.1c0.2-0.6-0.6,0.8-0.1,0.2c-0.1,0.1-0.1,0.1-0.2,0.2
			c-0.4,0.4,0.5-0.3,0,0c-0.2,0.1-0.6,0.2,0.1,0c-0.1,0-0.2,0.1-0.4,0.1c1-0.2-0.6-0.1,0.4,0c-0.2,0-1-0.3-0.3,0
			c-0.2-0.1-0.5-0.2-0.7-0.4c0.6,0.4,0-0.1-0.2-0.2c-0.2-0.2-0.1-0.1,0.1,0.2c-0.1-0.1-0.1-0.2-0.2-0.3c-0.1-0.1-0.3-0.6,0,0.1
			c0-0.1-0.1-0.2-0.1-0.3c-0.1-0.2,0,0.6,0,0c0,0.7-0.1,0.4,0,0.2c0.1-0.4-0.3,0.5,0,0.1c0.1-0.2,0.1-0.1-0.1,0.2
			c0.1-0.1,0.5-0.4-0.1,0c0.1-0.1,0.3-0.2,0.4-0.2c0.5-0.3-0.5,0.2,0.1,0c0.9-0.3,1.3-0.4,2.4-0.3c-0.3,0-0.3,0,0,0
			c0.6,0.1-0.4-0.2,0.1,0c0.5,0.2-0.3-0.3,0,0c0.4,0.3-0.3-0.4,0,0c-0.1-0.3-0.2-0.4-0.1-0.2c0.1,0.5,0-0.5,0,0c0,0,0,0.1,0,0.1
			c0.1-0.5,0.1-0.4,0,0.3c0.1-0.8-0.2,0.2,0.1-0.4c0,0.1-0.1,0.2-0.2,0.3c-0.3,0.5,0.3-0.3-0.1,0.1c-0.1,0.1-0.5,0.4-0.1,0.1
			c-0.2,0.1-0.3,0.2-0.5,0.3c0.4-0.2-0.2,0-0.3,0.1c-0.5,0.1,0.2,0-0.4,0c-0.2,0-0.4,0-0.7,0c-0.6,0,0.3,0.1-0.2,0
			c0,0-0.3-0.2-0.1,0c-0.3-0.3,0.2,0.3-0.1-0.1c-0.2-0.4,0.1,0.4,0-0.1c-0.1-0.4,0,0.4,0-0.1c0-0.1,0-0.5,0-0.1
			c0-0.1,0.1-0.3,0.1-0.4c-0.1,0.4,0,0,0.1-0.1c0.1-0.1,0.4-0.6,0.3-0.4c0.1-0.1,0.2-0.2,0.3-0.2c0.4-0.1,0.5,0,1-0.2
			c0.3-0.1,0.5-0.2,0.7-0.4c-0.4,0.4-0.3,0.2,0,0.1C683.3-206.4,683.7-207.1,683.2-207.7L683.2-207.7z"/>
	</g>
	<path class="st3" d="M660-59c-11.1,0.1-27-6.1-35.3-10.3c-13.3-6.8-35.3-19.1-43.4-33.6c3.5-4.9,7.4-9.5,12-13.4
		c2.2-1.9,4.9-4,8-6.1c7.4,10.3,16.6,17.3,28.4,24.1c11.4,6.6,26,15.5,38.8,14c-0.5,5.2-1.7,10.3-3.3,14.8
		C663.8-65.9,662.1-62.4,660-59z"/>
	<path class="st3" d="M640.4-36.7c-10.8,9.4-25.3,18.6-39.2,15.8c-25.4-5.1-40.2-30.5-34-54.3c7.6,10.9,16.9,18.1,29.1,25.1
		c13.1,7.6,30.3,18.2,44.3,12.6C640.6-37.2,640.5-37,640.4-36.7z"/>
	<path class="st3" d="M588-31.3c0,0.1,0,0.1,0,0.2c0.1-0.2,0.3-0.3,0.4-0.5c-1.4,0.4-2.2,2.2-2.8,3.4c-1,2-2.2,3.8-3.4,5.7
		c-1.1,1.8-2.4,3.6-3.1,5.6c-0.3,0.9-0.8,4.1,0.9,4.1c1.4,0,2.9-2.1,3.4-3.1c1.1-2,2.3-4,3.4-6c1-1.7,2.1-3.5,2.7-5.4
		c0.3-0.8,0.4-1.5,0.5-2.3c0.1-0.5-0.1-0.8-0.3-1.2c-0.2-0.3-0.8-0.5-0.9-0.6C588.7-31.9,588-31.8,588-31.3L588-31.3z"/>
</g>
<g>
	<g>
		<path class="st0" d="M105.9,37.2c0.6-2.2,1.8-4.1,2.4-6.3c1-3.9-1.4-6.8-5.2-8.3C95,19.2,87.6,25.5,90.6,34
			c2,5.7,4.9,8.7,9.3,12.8c1.3,1.3,3.1,2.9,4.9,3.5c3.7,1.4,1.8-1.9,1.1-4.1C104.9,43.5,105.2,39.9,105.9,37.2z"/>
		<path class="st1" d="M111.4,52.7c5.6-2.3,11.3-5.5,15.6-9.9c4.9-5.1,7.1-15.2,4-21.7c-3.1-6.7-11.5-8.4-18-5.8
			c-6.8,2.7-10.2,11.1-11.2,17.8c-0.5,3.2-0.7,6.7-0.2,9.9c0.6,4.2,2.9,6.7,5.6,9.8"/>
		<path class="st2" d="M90.2,67.9c-0.6-0.3-1.2-0.7-1.8-1.1c-3.7-2.3-7.6-5.6-8.1-9.9c-0.8-7.8,5.2-14.3,12.7-14.7l0,0
			c0.8,0,1.6,0,2.4,0.1c2.3,0.3,4.6,0.8,6.8,1.5c1.7,0.6,3.4,1.3,4.9,2.3c0.7,0.5,1.6,1.1,2.5,1.8c2.2,1.8,4.5,4.1,4.6,6.5l0.3,4.3
			c1.6,6.8-4.1,10.8-9.9,11.9c-1.6,0.3-3.1,0.4-4.6,0.4c-1.2-0.1-2.3-0.3-3.5-0.5C94.4,70,92.2,69,90.2,67.9z"/>
		<g>
			<path class="st3" d="M110.8,50.6c-1.7,2.6-2.7,6-2.2,9.1c0.5,3.6,3.4,6.3,6.4,8.1c7.2,4.2,17.3,3.3,21.8-4.4
				c1.7-3,2.2-7.1,0.7-10.3c-1.2-2.5-3.5-4.6-6-5.7c-3.3-1.5-8.1-3.3-11.7-2.7C116.2,45.5,112.7,47.7,110.8,50.6z"/>
			<path class="st4" d="M115.3,62.7c0.1,0.7,1,1.3,1.5,1.7c0.7,0.5,1.5,0.9,2.3,1.2c1.5,0.5,3.5,0.5,4.7-0.6
				c0.4-0.4-0.2-1.1-0.6-0.7c-1.1,1.1-2.6,1.1-4,0.6c-0.7-0.2-1.4-0.6-2.1-1c-0.3-0.2-0.6-0.4-0.8-0.7c-0.2-0.2-0.4-0.5-0.7-0.7
				C115.4,62.4,115.2,62.5,115.3,62.7L115.3,62.7z"/>
			<path class="st3" d="M130.8,48.9c0.3-0.2,0.5-0.4,0.7-0.7c0.2-0.2,0.5-0.4,0.7-0.6c0.6-0.4,1.4-0.6,2.1-0.7
				c0.7-0.1,1.4-0.2,2.2-0.1c0.5,0,1.8-0.1,1.4-0.9c-0.3-0.6-1.5-0.6-2.1-0.5c-0.8,0-1.6,0.1-2.4,0.3c-0.8,0.2-1.5,0.5-2.2,1
				c-0.6,0.4-1.3,1.2-1.2,1.9C130.2,48.9,130.5,49,130.8,48.9L130.8,48.9z"/>
			<path class="st3" d="M121.4,45.3c0.1-1-0.7-2.1-1.3-2.8c-0.4-0.4-0.8-0.8-1.3-1.1c-0.5-0.4-1.1-0.8-1.8-0.8c-0.6,0-1,0.7-0.5,1.2
				c0.4,0.4,0.9,0.6,1.4,0.9c0.4,0.3,0.8,0.6,1.1,1c0.6,0.6,0.9,1.4,1.4,2.2C120.6,46.1,121.3,45.7,121.4,45.3L121.4,45.3z"/>
			<path class="st3" d="M117.1,40c-0.1-0.6-0.8-0.8-1.3-0.9c-0.7,0-1.3,0.4-1.6,1c-0.6,1.3,0.7,2.4,1.9,2.4c0.6,0,1.2-0.2,1.6-0.7
				c0.4-0.5,0.4-1.3,0-1.8c-0.8-1-2.6-0.5-3.2,0.5c-0.2,0.4-0.1,0.9,0.4,1.1c0.6,0.2,1.5,0.4,1.8-0.3c0.2-0.8-0.8-0.9-1.3-1
				c0.1,0.4,0.3,0.7,0.4,1.1c0.1-0.1,0.2-0.2,0.4-0.3c0.2,0,0.1,0,0.3,0c0,0,0.2,0.1,0.1,0c0.2,0.1-0.1-0.1,0,0
				c-0.1-0.1-0.1-0.1-0.1-0.2c0,0.2,0-0.1,0,0.1c0-0.1-0.1,0.1-0.1,0.1c0.1-0.1-0.1,0.1-0.1,0.1c0.1-0.1-0.1,0-0.1,0
				c0,0-0.2,0-0.3,0c-0.4,0-0.9-0.1-0.8-0.6c0.2-0.5,1-0.2,1.3-0.1C116.9,40.5,117.1,40.3,117.1,40L117.1,40z"/>
			<path class="st3" d="M139.2,46c-0.1-0.2-0.2-0.5-0.5-0.5c-0.2-0.1-0.5-0.1-0.7,0c-0.5,0.2-0.9,0.5-0.9,1.1
				c-0.2,1.3,1.6,1.8,2.5,1.2c0.5-0.3,0.8-0.9,0.6-1.5c-0.2-0.8-1-1-1.7-1.2c-0.6-0.1-1.2,0.1-1.6,0.5c-0.3,0.3-0.3,0.9-0.2,1.3
				c0.2,0.6,0.6,1.1,1.2,1.3c0.8,0.2,1.5-0.3,1.9-1c0.2-0.3,0.2-0.7-0.1-0.9c-0.3-0.3-0.6-0.5-1-0.4c-0.2,0-0.3,0.1-0.4,0.2
				c-0.1,0,0,0,0,0c0,0-0.1,0.1-0.1,0.1c-0.5,0.2-0.3,1.1,0.2,1.1c0.1,0,0.2,0,0.4,0c-0.1,0-0.2,0-0.3-0.1c0.1,0.1,0.2,0.1,0.2,0.2
				c0-0.3,0-0.6-0.1-0.9c-0.1,0.1-0.1,0.2-0.2,0.3c0.1-0.2-0.3,0.2,0,0c0,0-0.1,0-0.1,0c-0.1,0.1,0.2,0,0,0c-0.1,0-0.2,0,0,0
				c0,0-0.1,0-0.1,0c0.3,0-0.2-0.1,0.1,0c-0.1,0-0.3-0.2-0.1,0c-0.1-0.1-0.1-0.1-0.2-0.2c0.1,0.2,0,0,0-0.1c0-0.1,0,0,0,0.1
				c0,0,0-0.1,0-0.1c0-0.1,0-0.2,0,0c0,0,0-0.1,0-0.1c0-0.1-0.1,0.2,0,0c-0.1,0.2-0.1,0.1,0,0.1c0.1-0.1-0.1,0.1,0,0
				c0.1,0,0,0-0.1,0c0,0,0.2-0.1,0,0c0,0,0.1,0,0.1,0c0.2,0-0.2,0,0,0c0.3,0,0.4,0,0.7,0.1c-0.1,0-0.1,0,0,0c0.2,0.1-0.1-0.1,0,0
				c0.1,0.1-0.1-0.1,0,0c0.1,0.1,0-0.1,0,0c0-0.1,0-0.1,0-0.1c0,0.1,0-0.2,0,0c0,0,0,0,0,0c0.1-0.1,0.1-0.1,0,0.1
				c0.1-0.2-0.1,0,0.1-0.1c0,0,0,0-0.1,0.1c-0.1,0.1,0.1-0.1,0,0c0,0-0.2,0.1,0,0c-0.1,0-0.1,0-0.2,0c0.1,0-0.1,0-0.1,0
				c-0.2,0,0.1,0-0.1,0c-0.1,0-0.1,0-0.2-0.1c-0.2-0.1,0.1,0.1-0.1,0c0,0-0.1-0.1,0,0c-0.1-0.1,0,0.1,0,0c0-0.1,0,0.1,0,0
				c0-0.1,0,0.1,0,0c0,0,0.1-0.1,0,0c0,0,0-0.1,0.1-0.1c-0.1,0.1,0,0,0,0c0,0,0.2-0.1,0.1-0.1c0,0,0.1,0,0.1,0c0.1,0,0.2,0,0.3,0
				c0.1,0,0.2,0,0.3-0.1c-0.2,0.1-0.1,0,0,0C139.1,46.4,139.3,46.2,139.2,46L139.2,46z"/>
		</g>
		<path class="st3" d="M96.6,70.6c-1-3.2-0.6-8.3-0.2-11.1c0.8-4.4,2.4-11.9,5.9-15.5c1.7,0.6,3.4,1.3,4.9,2.3
			c0.7,0.5,1.6,1.1,2.5,1.8c-2.3,3.1-3.5,6.3-4.5,10.4c-0.9,3.9-2.2,8.9-0.6,12.5c-1.6,0.3-3.1,0.4-4.6,0.4
			C98.9,71,97.7,70.9,96.6,70.6z"/>
		<path class="st3" d="M88.4,66.9c-3.7-2.3-7.6-5.6-8.1-9.9c-0.8-7.8,5.2-14.3,12.7-14.7c-2.5,3.2-3.7,6.5-4.7,10.7
			c-1,4.4-2.6,10.4,0.3,13.9C88.6,66.9,88.5,66.9,88.4,66.9z"/>
		<path class="st3" d="M82.2,52.2C82.2,52.2,82.1,52.2,82.2,52.2c0,0,0.1,0.1,0.1,0.1c-0.2-0.4-0.8-0.4-1.2-0.5
			c-0.7-0.1-1.3-0.3-1.9-0.5c-0.6-0.2-1.3-0.4-1.9-0.4c-0.3,0-1.2,0.1-1.1,0.6c0.1,0.4,0.9,0.6,1.2,0.7c0.7,0.1,1.4,0.3,2,0.5
			c0.6,0.1,1.2,0.3,1.8,0.3c0.2,0,0.5,0,0.7-0.1c0.1,0,0.2-0.1,0.3-0.2c0.1-0.1,0.1-0.3,0.1-0.3C82.4,52.3,82.3,52.2,82.2,52.2
			L82.2,52.2z"/>
	</g>
	<g>
		<path class="st1" d="M131.7,62.5c4.1-0.9,5.3-6.2,3.2-9.5c-2.4-3.8-8.8-2.3-10.2,1.6c-1.1,2.9,0.2,6.1,3.1,7.4
			C129.2,62.6,130.6,62.7,131.7,62.5z"/>
		<path d="M130.8,53.5c-2.2-2.3-5.9-0.5-5.4,2.7c0.4,2.8,4.3,3.8,5.7,1.2C131.8,56,131.9,54.6,130.8,53.5z"/>
		<path class="st1" d="M128.2,54.3c-0.2-1-1.7-1.3-2.2-0.3c-0.4,0.8,0.1,1.8,0.9,1.7C127.7,55.6,128.3,55.1,128.2,54.3z"/>
	</g>
	<g>
		<path class="st1" d="M117.3,56.9c3.3-0.7,4.3-5,2.6-7.7c-2-3.1-7.1-1.8-8.3,1.3c-0.9,2.4,0.1,4.9,2.5,5.9
			C115.3,57,116.3,57.1,117.3,56.9z"/>
		<path d="M116.5,49.6c-1.8-1.8-4.8-0.4-4.4,2.1c0.3,2.2,3.4,3.1,4.6,1C117.3,51.7,117.4,50.5,116.5,49.6z"/>
		<path class="st1" d="M114.4,50.3c-0.1-0.8-1.4-1-1.7-0.2c-0.3,0.6,0,1.4,0.8,1.3C114,51.3,114.5,50.9,114.4,50.3z"/>
	</g>
</g>
<g>
	<path class="st5" d="M273.9,33c4.2,10.5,6.7,22,8.4,33.2c0.9,6.1,1.5,12.2,2.4,18.3c0.8,5.1,1.4,11.4,5.4,15.2
		c1.4,1.3,3.5,1,4.5-0.6c2.8-4.7,1.9-11,1.6-16.2c-0.4-6.7-1.3-13.3-2.5-19.9c-2.3-12.4-6.3-23.6-15.2-32.8
		C276.7,28.4,272.9,30.3,273.9,33L273.9,33z"/>
	<path class="st5" d="M339.8,16.7c-0.3,2.6-1.1,4.5-1,7.2c0.1,3.1,0.1,6.2,0.2,9.2c0.2,6.4,0.9,12.8,1.3,19.2
		c0.5,6.6,0.9,13.3,1.7,19.9c0.6,5.8,0.4,12.6,3.9,17.5c1.2,1.7,3.4,1.7,4.6,0c3.6-5,3.1-11.6,3.1-17.5c0.1-6.6-0.5-13.3-1.2-19.9
		c-0.7-6.2-1.4-12.6-2.8-18.8c-0.7-3-1.4-6-2.2-9c-0.9-3.4-2.3-5.8-3.6-8.9C342.9,13.3,340.1,14.8,339.8,16.7L339.8,16.7z"/>
	<path class="st5" d="M383.5,19.6c-2.4,3.2,0.3,8,1.1,11.4c1.2,5,1.6,10.1,2.1,15.3c1.1,10.4,0.3,20.9,1.2,31.4c0.2,2.3,1.1,5,3.5,6
		c2.7,1.2,4.4,1.2,7.1,0c2.3-1,3.3-3.8,3.5-6c1-12.2,0.1-25.7-2.3-37.7C398.9,35.9,391.2,9,383.5,19.6L383.5,19.6z"/>
	<path class="st2" d="M287.1,21.6c-2-0.3-4.1-0.8-6-0.3c-2.2,0.6-4.3,1.5-6.4,2.6c-3.7,1.9-7.1,5.1-9.5,8.5
		c-3.5,4.7,3.4,11.7,8.2,8.2c4.3-3.2,8.3-8.8,13.8-10.1C291.3,29.4,291.7,22.3,287.1,21.6L287.1,21.6z"/>
	<path class="st2" d="M377,22.1c0.1,0.9,0.3,1.7,0.8,2.5c0.7,1.1,1.8,2,2.9,2.7c1.9,1.3,4,2.1,6.2,2.9c5.1,1.9,11.2,1,15.8-1.5
		c5.7-3.2,2.7-11.2-3.1-11.6c-3.6-0.3-7.3,0-10.9-0.1c-3.4-0.1-6.2-0.8-9.5,0c1.1,0.3,2.2,0.6,3.2,0.9c-0.2-0.2-0.4-0.4-0.6-0.5
		C378.5,14.7,373.9,19.2,377,22.1L377,22.1z"/>
	<path class="st2" d="M349.4,12.5c-0.5-0.1-0.9-0.2-1.4-0.3c1.1,1.1,2.2,2.2,3.3,3.3c0,0,0-0.1-0.1-0.1c-1-2.6-2.8-4.1-5.7-4.3
		c-0.8,0-0.8-0.1-0.1-0.1c-1-0.4-2-0.2-3-0.1c-1.7,0.1-3.5,0.4-5.2,0.6c-2.7,0.4-5.5,1.2-8,2.3c-3,1.3-4.3,5.5-3.4,8.4
		c1.2,4.2,5.2,5.9,9.2,5.2c2.8-0.4,5.8-1.9,8.4-3c-1.3,0.6,0.8-0.3,0.8-0.3c1.5-0.6,2.9-1,4.1-2.2c-1.4,1.3,2.1-1.5,1.4-0.8
		c1.2-1.2,1.6-2.6,1.7-4.3c-1.2,1.5-2.3,3.1-3.5,4.6c0.5-0.2,0.9-0.4,1.4-0.5C353.4,19.6,353.7,13.7,349.4,12.5L349.4,12.5z"/>
	<path class="st6" d="M362.3,136.9c-10,24-7.8,52.1-5.3,77.3c1.3,13.6,3.3,27,5,40.5c0.9,6.7,2.1,13.3,3.1,20c0.9,5.7,1.6,13,4.6,18
		c1.4,2.3,5.6,2.9,6.9,0c2.2-5,1.8-10.8,2-16.2c0.3-6.5-0.7-13.5-1.5-20c-1.7-13.5-3.6-27-5.2-40.5c-3.1-26.2-3.1-51.7-0.1-77.9
		C372.4,132.2,364.2,132.3,362.3,136.9L362.3,136.9z"/>
	<path class="st7" d="M461.1,76.5c-32.8,100.8-165.7,94.3-221.3,20.3c-27.7-36.9,15.7-41.5,40-24.5c19.3-28.4,81.2-56.8,84.4-3.8
		C390.2,47,483.1,9,461.1,76.5z"/>
	<path class="st8" d="M329.4,264.7c2,3.9,3.7,7.6,6.5,11.1c3.2,4.1,6.6,7.7,10.5,11.2c5.1,4.5,18.7,16.1,25.8,9.9
		c7.1-6.2-9.9-14.7-13.7-17.2c-4.3-2.9-8-6.4-11.9-9.8c-3.7-3.3-7.6-6.5-11.2-9.8C332.1,257.1,327.4,260.8,329.4,264.7L329.4,264.7z
		"/>
	<path class="st8" d="M367,264.1c-4.6,10.5-6.6,23.4-5.1,34.8c0.7,5.1,9.2,7.6,10,1.4c1.5-11.1-0.5-22.4,1.6-33.4
		C374.2,263.1,368.7,260.1,367,264.1L367,264.1z"/>
	<path class="st8" d="M370.6,300.9c2.5-7.6,10.6-14.1,16.5-19c7.8-6.5,18-10.5,27.3-14.1c1.5-0.6,3.2-1.7,3.5-3.5
		c0.2-1.5,0.2-2.4-0.5-3.8c-0.7-1.5-2.7-2.5-4.3-2.5c-6.3,0.1-11.1,1.2-16.9,3.9c-5.8,2.8-11.1,6.6-16,10.7
		c-8.4,7.1-13.5,16-14.9,26.7C364.8,302.8,369.5,304.4,370.6,300.9L370.6,300.9z"/>
	<path class="st8" d="M375.7,305.8c2.9-1.3,6.4-1.9,9.5-2.5c4.2-0.9,8.3-2.4,12.5-3.5c3.9-1,7.8-1.7,11.8-2.4
		c3.5-0.6,8.4-1.2,10.8-4.2c1.2-1.6,1.3-3.2,0-4.8c-5.2-6.4-19.2-2.1-25.7-0.2c-8.9,2.5-15.6,6.9-22.4,13
		C369.4,303.6,372.8,307.1,375.7,305.8L375.7,305.8z"/>
	<path class="st8" d="M375.1,301.4c-5.7-2.5-11.3-5.2-17.3-6.9c-5.5-1.6-13.8-2.9-18.2,1.7c-1.3,1.4-1.2,3.3,0,4.7
		c3.5,3.9,10.1,4,15,4.6c5.9,0.7,11.7,1.7,17.5,3.1C376.2,309.5,379.3,303.2,375.1,301.4L375.1,301.4z"/>
	<path class="st2" d="M205.2,88.6c-1.1,1-1.9,1.4-2.8,2.5c-0.8,1-1.7,2-2.2,3.1c-1.6,3.3,0.2,7.4,4.2,7.4c4,0,5.4-5.4,2-7.4
		c-1.5-1-1.2,0.5,1,4.5c0.1-0.2,0.1-0.3,0.2-0.4c0.1-0.2,0.2-0.3,0.3-0.5c-0.6,0.8,0.2-0.2,0.3-0.3c1.2-1.3,1.6-2,2.7-3.2
		c1.4-1.6,1.6-4,0-5.6C209.3,87,206.9,87.2,205.2,88.6L205.2,88.6z"/>
	<path class="st2" d="M189,92.8c-0.1,0-0.2-0.1-0.4-0.1c1.1,0.4,0.9,0.3-0.7-0.3c-1-0.3-1.6-0.2-2.5-0.1c-1.1,0.1-2.1,0.3-3.2,0.5
		c-1.8,0.4-3.2,1.2-4.6,2.4c-3.7,3.1-1.9,9.9,2.8,10.9c2,0.4,4.1,0,5.6-1.6c1.3-1.4,1.9-3.3,1.4-5.2c-0.5-1.6-1.3-2.7-2.7-3.6
		c-0.7-0.5,1.3,1.1,0.8,0.6c1,0.9,1.4,2.1,1.4,3.5c0,0.7-0.5,2.1-0.7,2.5c-0.8,1-1,1.3-0.7,0.9c0.4-0.3,0.1-0.1-0.9,0.6
		c0.2-0.1,0.3-0.2,0.5-0.3c-1.8,0.9-1,0.4-0.4,0.2c0.6-0.2,1.2-0.3,1.8-0.4c-2.6,0.4,1.7-0.3,1.3-0.2c1-0.3,1.8-0.8,2.5-1.5
		c-0.7,0.5-0.8,0.6-0.3,0.4c1.6-0.7,2.5-2.8,2.5-4.4C192.8,95.3,191.2,93.5,189,92.8L189,92.8z"/>
	<path class="st5" d="M247,99.5c-1.6,10.4-1.3,21-2.1,31.5c-0.4,5.6-1.1,11.1-1.8,16.7c-0.7,5.2-1.9,11-0.6,16.2
		c0.6,2.2,3.5,2.9,5,1.3c7.3-7.3,8.2-20.8,9.1-30.5c1.1-11.6,1.5-23.6-0.3-35.2C255.6,94.8,247.7,94.8,247,99.5L247,99.5z"/>
	<path class="st5" d="M204.3,98.7c1.5,9.1,5.1,17.9,7.9,26.7c2.3,7.2,3.7,16.6,10,21.4c1.2,0.9,3.1,0.2,3.8-1c4-7,0.2-16.6-2.3-23.5
		c-3.2-9.1-6.8-18.6-12.3-26.5C208.8,91.9,203.6,94.3,204.3,98.7L204.3,98.7z"/>
	<path class="st5" d="M179,107c1,14.5,8.7,30.3,17.4,41.9c3.5,4.6,12,2.2,10-4.2c-4.3-14-13.3-26.6-19.7-39.7
		C184.9,101.2,178.7,103,179,107L179,107z"/>
	<path class="st6" d="M232.2,197.3c-2.5,20.4-2.1,41.8-1.3,62.3c0.7,18.7,0.2,40.7,8.5,57.8c1.7,3.5,6.1,1.3,6.5-1.8
		c1.2-9.4,0-19.1-0.9-28.6c-0.9-9.8-1.5-19.6-1.9-29.4c-0.9-20-0.5-40.4-3-60.3C239.4,192.3,232.8,192.3,232.2,197.3L232.2,197.3z"
		/>
	<path class="st8" d="M187.7,293.7c9.1,5.2,18.9,8.9,28.1,14c4.7,2.6,9.2,5.4,14,7.7c2.5,1.2,8.9,2.7,9.6-1.9
		c0.7-4.7-2.1-6.4-5.5-9.1c-4.7-3.6-10.3-6.2-15.5-8.9c-8.7-4.4-19-9-29-8.1C186.2,287.7,184.6,291.9,187.7,293.7L187.7,293.7z"/>
	<path class="st8" d="M206.8,280.5c6.7,3.9,12.9,10.1,18.5,15.5c3,2.8,5.9,5.7,8.6,8.8c2.5,2.8,4.3,5.9,8.5,5.5
		c1.9-0.2,3.1-1.1,3.8-2.9c2.6-6.8-8.3-15.1-13-18.8c-7.5-5.8-15.3-8.8-23.7-12.5C206.4,274.8,203.8,278.8,206.8,280.5L206.8,280.5z
		"/>
	<path class="st8" d="M245.2,319.6c2.7-7.7,6.1-15.2,10.5-22.1c4.6-7.2,11.5-11.7,16.8-18.1c2.9-3.5,0.3-9.4-4.7-8
		c-9.1,2.5-16.4,11.5-20.9,19.3c-5.1,8.6-7.4,18.2-7.5,28.1C239.3,322.3,244.1,322.7,245.2,319.6L245.2,319.6z"/>
	<path class="st8" d="M251.8,320.7c3.8-5.4,9.3-8.8,15.5-11c6.4-2.3,13.9-1.1,19.9-4.3c1.5-0.8,1.6-2.9,0.5-4.1
		c-6-6.7-17.4-4.6-24.8-1.8c-8.6,3.2-14.8,9.8-18.1,18.2C243.2,322.1,249.5,324,251.8,320.7L251.8,320.7z"/>
	<path class="st2" d="M138.7,156.8c-12.6-39.4,30.1-37.4,50-16c11.6-31.7,79-66.5,73-9.2c29.4-35.1,105.4-40.9,71.9,19.6
		C295.9,219.3,168.6,250.3,138.7,156.8z"/>
	<path class="st2" d="M244.3,94.9c1.9,2.2,5.4,3.3,8.1,4.2c3.8,1.2,7.2,2.4,11,0.6c3-1.4,2.7-5.3,1-7.4c-2.1-2.7-5.8-3.2-8.9-4.2
		c-2.7-0.8-6.3-1.8-9.1-0.8C242.9,88.4,241.9,92.2,244.3,94.9L244.3,94.9z"/>
</g>
</svg>
