<?xml version="1.0" encoding="utf-8"?>
<!-- Generator: Adobe Illustrator 22.0.1, SVG Export Plug-In . SVG Version: 6.00 Build 0)  -->
<svg version="1.1" id="Calque_1" xmlns="http://www.w3.org/2000/svg" xmlns:xlink="http://www.w3.org/1999/xlink" x="0px" y="0px"
	 viewBox="0 0 532.4 331.3" style="enable-background:new 0 0 532.4 331.3;" xml:space="preserve">
<style type="text/css">
	.st0{fill:#E8EAEA;}
	.st1{fill:#FFFFFF;}
	.st2{fill:#FAB017;}
	.st3{fill:#231F20;}
	.st4{fill:#FCB614;}
</style>
<g>
	<path class="st0" d="M205.9,146.4c-6.2-3.9-11.1-9.7-17.7-13.8c-11.4-7-22.9-2.1-31.4,8.2c-18.5,22.4-5.8,52.1,24,50.7
		c20-0.9,32.1-7.2,49.6-16.9c5.3-2.9,12.3-7.1,15.9-11.9c7.9-10.4-4.3-7.7-12-7.4C224.8,155.6,213.8,151.3,205.9,146.4z"/>
	<path class="st0" d="M325.1,178.5c7.5,1.7,15.7,0.9,23.5,2.8c13.6,3.2,17,15.6,13.7,29.7c-7.1,30.9-41,44-59.6,20.6
		c-12.4-15.7-15.1-29.6-18.3-50.1c-1-6.2-2-14.6-0.3-21c3.8-13.8,9.5-2.6,14.4,3.4C304.6,171.3,315.6,176.3,325.1,178.5z"/>
	<path class="st1" d="M260.1,143.9c-1.7-19.8-6.5-41.2-16.3-58.9c-11.4-20.5-41.1-37.1-64.5-33.8c-24.3,3.3-37.6,28.3-35.9,51.1
		c1.8,24,25.2,42.9,45.3,52.8c9.7,4.8,20.5,8.6,31.2,10.2c13.9,2,23.9-2.6,36.4-8"/>
	<path class="st1" d="M289.1,161c16.2-28.6,61.7-81.4,100.3-57.1c13.1,8.3,20,27.1,17.8,42c-2.8,19.1-20.9,35.8-39.3,40.9
		c-28,7.7-67.1,4-85.5-21.4"/>
	<path class="st2" d="M287.7,225.7c-1.6,1.5-3.3,3.1-5.1,4.7c-10.8,9.4-25.3,18.6-39.2,15.8c-25.4-5.1-40.2-30.5-34-54.3l0,0
		c0.7-2.6,1.6-5.1,2.8-7.6c3.3-6.9,6.9-13.8,11.3-20.1c3.5-4.9,7.4-9.5,12-13.4c2.2-1.9,4.9-4,8-6.1c7.7-5.3,17.5-10.2,25.1-8.1
		l14,3.3c23.2,1.6,30,23.4,28.1,43c-0.5,5.2-1.7,10.3-3.3,14.8c-1.3,3.7-3.1,7.2-5.1,10.5C298.2,214.7,293.1,220.6,287.7,225.7z"/>
	<g>
		<path class="st3" d="M240.5,102.3c-2.7,9.9-2.5,21.5,2,30.9c5.2,11,16.9,16.5,28.3,19.2c26.8,6.3,57.9-6.7,64.3-35.4
			c2.5-11.2,0-24.6-8.1-33c-6.4-6.6-15.6-10.9-24.5-12c-11.9-1.5-28.7-2.5-39.6,3.3C252.6,80.6,243.6,91.1,240.5,102.3z"/>
		<g>
			<path class="st1" d="M315.4,123.4c12.4-2.7,15.8-18.5,9.5-28.4c-7.3-11.4-26.4-6.8-30.7,4.8c-3.2,8.8,0.5,18.3,9.2,22.1
				C307.9,123.8,311.9,124.2,315.4,123.4z"/>
		</g>
		<g>
			<path class="st1" d="M265.5,120.5c10.7-2.4,13.7-16.1,8.3-24.6c-6.3-9.8-22.9-5.9-26.6,4.2c-2.8,7.6,0.4,15.9,8,19.1
				C259,120.9,262.5,121.2,265.5,120.5z"/>
			<path class="st3" d="M252.7,105.9c1-0.1,1.8-0.5,2.8-0.9c1.1-0.4,2.4-0.5,3.5-0.3c1.2,0.2,2.4,0.7,3.4,1.3c1.2,0.7,2,1.6,3.3,2
				c1.1,0.4,2.5-0.9,2.1-2.1c-1.2-3.1-5.2-4.7-8.3-5.1c-2.7-0.3-7,1-7.8,3.8C251.5,105.2,252,105.9,252.7,105.9L252.7,105.9z"/>
			<path class="st3" d="M319.8,107.6c0.8-1.8-1-3.2-2.3-4.2c-1.6-1.2-3.7-1.7-5.7-1.8c-2-0.1-4.1,0.5-5.8,1.5
				c-1.5,0.9-3.7,2.9-3.5,4.7c0.1,0.9,1,1.6,1.9,1.1c1.3-0.7,1.9-2.3,3.2-3.1c1.3-0.8,2.8-1.1,4.3-1.2c1.5,0,3,0.5,4.3,1.2
				c1.2,0.7,1.8,1.9,3.2,2C319.5,107.8,319.8,107.7,319.8,107.6L319.8,107.6z"/>
		</g>
		<path class="st4" d="M266.6,135.9c1.1,2,4.3,3.1,6.3,3.8c2.7,0.9,5.6,1.4,8.4,1.4c5.3,0.1,11.6-1.8,14.4-6.7
			c1-1.7-1.7-3.3-2.6-1.5c-2.4,4.6-7.2,6-12.1,6c-2.6,0-5.1-0.4-7.6-1.2c-1.1-0.3-2.2-0.8-3.2-1.3c-1-0.5-1.8-1.2-2.9-1.5
			C266.8,134.7,266.4,135.4,266.6,135.9L266.6,135.9z"/>
		<path class="st3" d="M302,77c0.9-0.8,1.2-1.9,1.7-3c0.4-1,1.1-1.9,1.8-2.7c1.6-1.9,3.7-3.3,5.9-4.4c2.1-1.1,4.4-1.9,6.7-2.6
			c1.6-0.4,5.6-2,3.6-4.1c-1.7-1.7-5.4-0.3-7.2,0.4c-2.5,0.9-5,2-7.3,3.4c-2.3,1.4-4.2,3.2-5.8,5.4c-1.4,1.9-2.9,4.9-1.7,7.2
			C300,77.6,301.2,77.7,302,77L302,77z"/>
		<path class="st3" d="M268.5,74.9c-0.6-3.3-4.4-5.9-7.1-7.5c-1.6-1-3.4-1.7-5.2-2.3c-2-0.6-4.4-1.3-6.4-0.7
			c-1.8,0.5-2.4,3.2-0.5,4.2c1.6,0.8,3.4,0.9,5.2,1.4c1.6,0.5,3.1,1.1,4.5,1.9c2.6,1.4,4.3,3.6,6.7,5.4
			C267.1,78.3,268.8,76.4,268.5,74.9L268.5,74.9z"/>
		<path class="st3" d="M249.8,62.5c-1-1.8-3.3-1.9-5-1.4c-2.2,0.6-3.9,2.5-4.2,4.8c-0.6,4.8,4.5,6.8,8.4,5.7c2-0.6,3.5-1.9,4.3-3.9
			c0.9-2.1,0.1-4.4-1.7-5.6c-3.5-2.2-8.6,1-9.6,4.6c-0.4,1.5,0.7,3,2.3,3c1.9,0,5.2-0.1,5.2-2.8c0-2.7-3.6-2-5.2-2
			c0.8,1,1.5,2,2.3,3c0.1-0.5,0.4-0.9,1.1-1.3c0.5-0.3,0.4-0.2,1-0.4c0,0,0.8,0,0.5,0c0.6,0.1-0.4-0.2,0.1,0
			c-0.2-0.1-0.3-0.3-0.4-0.5c0.2,0.5,0-0.4,0,0.3c0-0.3-0.1,0.4-0.1,0.5c0.1-0.4-0.2,0.2-0.2,0.3c0.2-0.3-0.3,0.2-0.3,0.2
			c0,0-0.6,0.3-0.8,0.4c-1.4,0.5-2.9,0.4-3-1.2c0-1.9,2.9-1.7,4.1-1.8C249.7,64.4,250.3,63.4,249.8,62.5L249.8,62.5z"/>
		<path class="st3" d="M325.4,59.4c-0.6-0.7-1.2-1.2-2.2-1.2c-0.8,0-1.7,0.3-2.3,0.8c-1.4,1-2.1,2.6-1.9,4.3
			c0.6,4.3,6.9,4.1,9.2,1.4c1.3-1.5,1.7-3.7,0.5-5.4c-1.5-2.1-4.1-2.3-6.5-2c-2,0.3-3.7,1.4-4.5,3.3c-0.6,1.4-0.2,3.1,0.7,4.2
			c1.1,1.6,3,2.9,5.1,2.8c2.8-0.1,4.4-2.4,5-4.9c0.2-1-0.1-2.2-1.1-2.7c-1.3-0.6-2.3-0.8-3.6-0.2c-0.5,0.2-0.8,0.6-1.1,1
			c-0.1,0.2-0.1,0.2,0,0c-0.1,0.1-0.3,0.3-0.4,0.4c-1.5,1.2,0.1,3.9,1.9,3.2c0.4-0.1,0.8-0.3,1.1-0.5c-0.3,0.2-0.8,0.1-1.1,0
			c0.3,0.1,0.6,0.2,0.9,0.3c-0.4-0.9-0.7-1.8-1.1-2.7c-0.1,0.4-0.2,0.7-0.3,1.1c0.2-0.6-0.6,0.8-0.1,0.2c-0.1,0.1-0.1,0.1-0.2,0.2
			c-0.4,0.4,0.5-0.3,0,0c-0.2,0.1-0.6,0.2,0.1,0c-0.1,0-0.2,0.1-0.4,0.1c1-0.2-0.6-0.1,0.4,0c-0.2,0-1-0.3-0.3,0
			c-0.2-0.1-0.5-0.2-0.7-0.4c0.6,0.4,0-0.1-0.2-0.2c-0.2-0.2-0.1-0.1,0.1,0.2c-0.1-0.1-0.1-0.2-0.2-0.3c-0.1-0.1-0.3-0.6,0,0.1
			c0-0.1-0.1-0.2-0.1-0.3c-0.1-0.2,0,0.6,0,0c0,0.7-0.1,0.4,0,0.2c0.1-0.4-0.3,0.5,0,0.1c0.1-0.2,0.1-0.1-0.1,0.2
			c0.1-0.1,0.5-0.4-0.1,0c0.1-0.1,0.3-0.2,0.4-0.2c0.5-0.3-0.5,0.2,0.1,0c0.9-0.3,1.3-0.4,2.4-0.3c-0.3,0-0.3,0,0,0
			c0.6,0.1-0.4-0.2,0.1,0c0.5,0.2-0.3-0.3,0,0c0.4,0.3-0.3-0.4,0,0c-0.1-0.3-0.2-0.4-0.1-0.2c0.1,0.5,0-0.5,0,0c0,0,0,0.1,0,0.1
			c0.1-0.5,0.1-0.4,0,0.3c0.1-0.8-0.2,0.2,0.1-0.4c0,0.1-0.1,0.2-0.2,0.3c-0.3,0.5,0.3-0.3-0.1,0.1c-0.1,0.1-0.5,0.4-0.1,0.1
			c-0.2,0.1-0.3,0.2-0.5,0.3c0.4-0.2-0.2,0-0.3,0.1c-0.5,0.1,0.2,0-0.4,0c-0.2,0-0.4,0-0.7,0c-0.6,0,0.3,0.1-0.2,0
			c0,0-0.3-0.2-0.1,0c-0.3-0.3,0.2,0.3-0.1-0.1c-0.2-0.4,0.1,0.4,0-0.1c-0.1-0.4,0,0.4,0-0.1c0-0.1,0-0.5,0-0.1
			c0-0.1,0.1-0.3,0.1-0.4c-0.1,0.4,0,0,0.1-0.1c0.1-0.1,0.4-0.6,0.3-0.4c0.1-0.1,0.2-0.2,0.3-0.2c0.4-0.1,0.5,0,1-0.2
			c0.3-0.1,0.5-0.2,0.7-0.4c-0.4,0.4-0.3,0.2,0,0.1C325.5,60.8,325.9,60,325.4,59.4L325.4,59.4z"/>
	</g>
	<path class="st3" d="M302.2,208.1c-11.1,0.1-27-6.1-35.3-10.3c-13.3-6.8-35.3-19.1-43.4-33.6c3.5-4.9,7.4-9.5,12-13.4
		c2.2-1.9,4.9-4,8-6.1c7.4,10.3,16.6,17.3,28.4,24.1c11.4,6.6,26,15.5,38.8,14c-0.5,5.2-1.7,10.3-3.3,14.8
		C306,201.3,304.3,204.8,302.2,208.1z"/>
	<path class="st3" d="M282.6,230.4c-10.8,9.4-25.3,18.6-39.2,15.8c-25.4-5.1-40.2-30.5-34-54.3c7.6,10.9,16.9,18.1,29.1,25.1
		c13.1,7.6,30.3,18.2,44.3,12.6C282.7,229.9,282.7,230.2,282.6,230.4z"/>
	<path class="st3" d="M230.2,235.9c0,0.1,0,0.1,0,0.2c0.1-0.2,0.3-0.3,0.4-0.5c-1.4,0.4-2.2,2.2-2.8,3.4c-1,2-2.2,3.8-3.4,5.7
		c-1.1,1.8-2.4,3.6-3.1,5.6c-0.3,0.9-0.8,4.1,0.9,4.1c1.4,0,2.9-2.1,3.4-3.1c1.1-2,2.3-4,3.4-6c1-1.7,2.1-3.5,2.7-5.4
		c0.3-0.8,0.4-1.5,0.5-2.3c0.1-0.5-0.1-0.8-0.3-1.2c-0.2-0.3-0.8-0.5-0.9-0.6C230.9,235.2,230.2,235.4,230.2,235.9L230.2,235.9z"/>
</g>
</svg>
