<?xml version="1.0" encoding="utf-8"?>
<!-- Generator: Adobe Illustrator 22.0.1, SVG Export Plug-In . SVG Version: 6.00 Build 0)  -->
<svg version="1.1" id="Calque_1" xmlns="http://www.w3.org/2000/svg" xmlns:xlink="http://www.w3.org/1999/xlink" x="0px" y="0px"
	 viewBox="0 0 1190.6 841.9" style="enable-background:new 0 0 1190.6 841.9;" xml:space="preserve">
<style type="text/css">
	.st0{fill:#FAB017;}
	.st1{fill:#E79A24;}
	.st2{fill:#2DB24A;}
	.st3{fill:#9FCB3A;}
	.st4{fill:#74451C;}
	.st5{fill:#AEAEAF;}
	.st6{fill:#FFFFFF;}
	.st7{fill:#70BAB8;}
	.st8{fill:#9AD6D4;}
	.st9{fill:#231F20;}
	.st10{fill:#FCB614;}
	.st11{fill:#875126;}
</style>
<g>
	<path class="st0" d="M361.8,516L361.8,516c-0.6-0.2-1.2-0.5-1.8-0.8c0.2,0.3,0.4,0.6,0.6,0.9c12.8,20.4-60,16.8-71.4,14.6
		c-10.9-2.2-23.1-6.3-31.2-12.4c-4.9-3.7-10.7-11.7-6.8-16.9c0.6-0.7,1.3-1.4,2.3-2c0.2-0.1,0.4-0.3,0.7-0.4
		c-7.6-5.1-13.4-10.8-14.2-19c-0.4-3.9,1-10.4,5.1-13.9c0.9-0.8,1.9-1.4,3.1-1.8c0,0,0,0,0,0c0.4-0.1,0.9-0.3,1.4-0.4
		c-7.9-6.4-10.8-11.8-10.2-21.1c0.4-6.1,3.8-16.5,13-18c-0.3-0.4-0.6-0.7-0.9-1.1c-0.8-0.9-1.6-1.9-2.4-2.7c-4.1-4.5-8.2-8.5-9-14.6
		c-0.8-6.3,2.3-14,8.1-16.8c0.9-0.4,1.9-0.8,3-0.9c0.1,0,0.2,0,0.3,0c-0.1,0-0.2,0-0.3,0c-0.8,0-1.5-0.2-2-0.7
		c-3.3-3-1.7-14.4-0.3-16.7c3.3-5.2,10.8-7.2,16.4-8.7c16.1-4.3,33.5-3.4,49.9-1.8c9.7,1,20.4,1.2,29.1,4.4
		c11.1,4.2,22.5,7.9,24.3,21.4c0.1,0.9-1.2,7.5-3,10.3c-0.7,1.1-1.4,1.6-2.2,1c0.9,0.7,1.8,1.4,2.7,2.1c6.7,5,13.2,8.9,14.7,16.9
		c0.7,4-0.6,13.6-5.3,17.9c-1.2,1.1-2.6,1.9-4.3,2.1c0.7,0.5,1.3,0.9,1.9,1.4h0c7,5,13.2,10,13.6,19.4c0.2,4.2-1.4,11.2-4.8,15.6
		c-1.7,2.3-3.9,3.8-6.5,4h0c-0.4,0-0.8,0-1.2,0h0c-0.2,0-0.5-0.1-0.7-0.1c0.2,0,0.3,0.1,0.5,0.1c0,0,0,0,0,0
		C391.6,481.7,379.2,521.8,361.8,516z"/>
	<path class="st1" d="M251,388.7c-0.8,0-1.5-0.2-2-0.7C249.7,388.2,250.4,388.5,251,388.7z"/>
	<path class="st1" d="M365.9,400c-10,0.8-20,1.1-30,1c-12.8-0.1-25.5-1-38.2-2c-10.5-0.8-21-1.7-31.3-3.8c-5.2-1-10.6-2.2-15.5-4.3
		c-1-0.4-1.9-0.8-2.9-1.2c0.9-0.4,1.9-0.8,3-0.9c0,0,0.1,0,0.1,0c5.1,1.7,10.2,3.1,15.5,4.1c5.4,1,10.8,1.7,16.2,2.2
		c5,0.5,10,0.8,15,1.2c6.3,0.4,12.5,0.9,18.8,1.2c13.1,0.6,26.2,0.8,39.4,0.1c3.1-0.2,6.2-0.4,9.3-0.6c-0.7,1.1-1.4,1.6-2.2,1
		C364.1,398.7,365,399.4,365.9,400z"/>
	<path class="st1" d="M249,421c1.4,0.3,2.7,0.7,4,1.1c2.9,0.9,5.7,1.9,8.7,2.6c6.5,1.6,13,2.7,19.6,3.8c6.6,1,13.2,1.9,19.7,2.8
		c6.6,0.9,13.2,2,19.8,2.7c13.9,1.3,27.8,1.3,41.7,1.1c4.2-0.1,8.5-0.2,12.7-0.2c-1.2,1.1-2.6,1.9-4.3,2.1c0.7,0.5,1.3,0.9,1.9,1.4
		c-2.9,0-5.8,0.1-8.7,0.1c-13.3,0.2-26.7,0.3-40-0.9c-7.1-0.6-14.1-1.8-21.1-2.9c-6.8-1.1-13.7-2-20.5-3.1
		c-6.9-1.1-13.8-2.5-20.5-4.2c-3-0.8-6-1.9-8.9-3c-0.6-0.2-1.2-0.4-1.8-0.6L249,421z"/>
	<path class="st1" d="M381.8,473.3c-1.7,2.3-3.9,3.8-6.5,4h0c-0.4,0-0.8,0-1.2,0h0c-0.1,0-0.2,0-0.2,0c0,0,0,0,0,0
		c-1.6,0-3.3,0-4.9,0.1c-3.5,0.2-7.1,0.3-10.6,0.5c-7,0.3-13.9,0.7-20.9,0.8c-13.9,0.2-27.8-0.2-41.5-2.2
		c-5.2-0.8-10.4-1.6-15.7-2.3c-5.3-0.7-10.6-1.3-15.9-2.3c-5.1-0.9-10.2-2.1-15.1-3.9c-1.4-0.5-2.9-1.1-4.3-1.8
		c0.9-0.8,1.9-1.4,3.1-1.8c0,0,0,0,0,0c7.5,2.8,15.5,4.1,23.4,5.2c5.1,0.7,10.2,1.2,15.2,1.9c6.1,0.8,12.2,1.8,18.4,2.4
		c13.8,1.2,27.6,1.1,41.5,0.5c7-0.3,14-0.7,21-1c3.5-0.2,7-0.1,10.5,0C379.3,473.2,380.6,473.3,381.8,473.3z"/>
	<path class="st1" d="M253.6,499.4c3.7,1.2,7.7,1.9,11.4,2.5c7.9,1.3,15.9,1.8,23.8,2.8c2.2,0.3,4.4,0.6,6.5,1
		c2.3,0.4,4.5,1.1,6.8,1.6c6.5,1.5,13.1,2.5,19.7,3.2c6.7,0.7,13.5,1.1,20.2,1.4c3.4,0.1,6.7,0.2,10.1,0.2c3.3,0,6.8-0.3,10,0.3
		c1.7,0.3,1.7,3.1,0,3.5c-0.1,0-0.2,0-0.3,0.1h0c-0.4,0.1-0.8,0.1-1.2,0.2c-2.4,0.2-4.9,0-7.3,0c-2.8,0-5.6-0.1-8.5-0.2
		c-5.8-0.2-11.6-0.5-17.4-1c-5.8-0.5-11.6-1.2-17.3-2.2c-4.9-0.9-9.8-2.2-14.7-3.2c-9.1-1.9-18.5-2.4-27.7-3.8
		c-4.6-0.7-9.3-1.6-13.7-3.1c-1-0.3-1.9-0.7-2.8-1.1L253.6,499.4z"/>
	<g>
		<path class="st2" d="M191.8,322.5c-11.3,7.9-25.1-4.9-18.5-16.6c3.9-7,10.6-11.6,16.7-16c3,7.2,6.5,14.5,6.5,22.4
			C196.4,316.1,195.1,320.2,191.8,322.5z"/>
		<path class="st3" d="M180.3,332.4c-8.8,4.5-25.9-1.6-28.8-11.5c-2.5-8.6,4.4-16.9,8.7-23.3c2.6,5.2,11.5,8.1,15.6,13
			c4.3,5.1,7.1,13.6,5.7,20.1"/>
		<path class="st3" d="M186,314.6c5.8-5.7,15.4-7.6,22.9-9.1c1.8,8.1,1.4,15.3-3.8,22.5c-2.5,3.5-6.6,7.2-10.9,8.1
			C180.9,338.9,178.3,322.2,186,314.6z"/>
		<path class="st2" d="M284.9,322.7c-11.3,7.9-25.1-4.9-18.5-16.6c3.9-7,10.6-11.6,16.7-16c3,7.2,6.5,14.5,6.5,22.4
			C289.5,316.2,288.2,320.3,284.9,322.7z"/>
		<path class="st4" d="M172.7,322.5c0.9,1.2,1.9,2.4,2.7,3.7c0.2,0.3,0.4,0.7,0.6,1c-0.4-0.6,0.8,1.4,0.9,1.4
			c0.3,0.3,0.6,0.6,0.8,0.9c0.3,0.4,0.4,0.4,0.1,0.1c0.3,0.4,0.6,0.8,1,1.2c0.6,0.5,1.1,1.3,1.6,1.9c0.3,0.3,0.5,0.6,0.8,1
			c-1.1-1.4,0.3,0.5,0.8,0.9c1.3,1.1,2.6,2.4,3.8,3.6c2.5,2.3,4.9,4.6,7.5,6.8c3,2.6,6.1,5.3,9.5,7.5c6.5,4.3,13.4,8.3,20.8,11.1
			c6.7,2.5,13.6,4.5,20.6,5.9c14.6,3,29.7,3.7,44.5,5.3c7.4,0.8,14.9,1.5,22.3,2c7.6,0.4,15.2,0.7,22.8,0.9
			c6.5,0.2,12.9,0.3,19.4,0.5c3,0.1,6,0.1,9-0.1c4-0.3,7.9-0.9,11.8-1.6c6.2-1.2,12.2-2.9,18.3-4.6c3.1-0.9,6.2-1.9,9.2-3.1
			c2.2-0.8,4.3-1.6,6.4-2.6c2.4-1.2,4.3-3,5.8-5.2c-0.4,0.5-0.8,1.1-1.3,1.6c0.9-0.8,1.6-2,2.3-2.9c1-1.3,1-3.4,0.6-4.9
			c-0.5-1.7-1.5-2.8-2.9-3.8c-1.2-0.8-2.2-1.3-3.6-1.8c0.6,0.3,1.3,0.5,1.9,0.8c-1.8-1.2-4.5-1.9-6.6-2c0.8,0.1,1.7,0.2,2.5,0.3
			c-1.4-0.2-2.8-0.4-4.2-0.4c-1.6,0-3.4,0.4-4.8,0.6c-1.8,0.2-3.5,0.5-5.2,0.9c-3.3,0.7-6.6,1.6-9.8,2.5c-6.4,1.8-12.9,3.5-19.5,4.5
			c1-0.1,1.9-0.3,2.9-0.4c-7.2,1-14.5,0.5-21.8,0.3c-7.6-0.2-15.2-0.3-22.7-0.6c-7.6-0.3-15.1-0.7-22.6-1.3
			c-7.3-0.6-14.5-1.5-21.7-2.1c-7-0.6-14-1.3-21-2.2c0.9,0.1,1.9,0.3,2.8,0.4c-12.8-1.7-25.8-4.2-37.8-9.2c0.8,0.3,1.5,0.7,2.3,1
			c-5.1-2.2-9.9-5.1-15.1-7.2c0.7,0.3,1.4,0.6,2.2,0.9c-4.4-2-8.6-4.4-13-6.2c0.6,0.3,1.2,0.5,1.8,0.8c-3.1-1.5-6.2-3-9.3-4.5
			c-1.9-0.9-3.8-1.6-5.8-2.3c-0.1,0-1.3-0.5-0.4-0.1c-0.7-0.3-1.1-0.4-1.8-0.6c-1.2-0.4-2.1-0.7-3.7-0.5c0.6,0,1.2,0,1.8,0
			c-2.1-0.3-4.2-0.8-6.3-1.3C173,321.1,172.2,321.9,172.7,322.5L172.7,322.5z"/>
		<path class="st4" d="M202.3,368c0.2,0,0.4,0.1,0.6,0.1c-0.7-0.5-1.3-1-2-1.5c0.5,0.6,0.8,1.2,1.5,1.6c0.5,0.3,1.2,0.5,1.8,0.7
			c1,0.4,2.1,0.5,3.1,0.5c1.6,0.1,3.1,0.2,4.7,0.1c1.6-0.1,3.2-0.1,4.8-0.2c1.6-0.1,3.2-0.3,4.9-0.5c3.2-0.4,6.5-0.7,9.8-0.9
			c2.1-0.1,4.2-0.4,6.3-0.8c0.8-0.1,1.5-0.3,2.2-0.6c1.5-0.5,2.6-1.1,3.8-2.2c-0.8,0.5-1.6,0.9-2.4,1.4c0.2-0.1,0.4-0.2,0.6-0.2
			c1.7-0.7,3-1.7,3.5-3.5c0.6-2-0.3-4.8-2.3-5.7c-1-0.4,0.9,0.9,0.2,0.3c-0.7-0.7-1.2-0.9-2-1.3c-1.7-0.7-2.9-1-4.8-1.3
			c-1.6-0.2-3.2-0.3-4.8-0.2c-3.9,0.3-7.7,0.8-11.6,1.4c-1.6,0.2-3.2,0.5-4.8,0.9c-1.6,0.4-3.1,0.9-4.6,1.4c-1.5,0.5-3,1.1-4.5,1.7
			c-1.3,0.5-2.5,1-3.6,2c-1,0.9-1.8,1.5-2.1,2.9c0.5-0.7,1-1.3,1.5-2c-0.2,0.1-0.3,0.2-0.5,0.3C199.5,363.7,199.6,367.5,202.3,368
			L202.3,368z"/>
		<path class="st4" d="M265.5,324.5c0.4,1.1,0.8,2.1,1.2,3.2c0.3,0.7,0.6,1.4,0.9,2.1c0.1,0.1,0.4,1,0.1,0.2c0.1,0.3,0.2,0.7,0.4,1
			c0.5,1.3,1,2.7,1.7,3.9c0.6,1.1,1.3,2.1,2,3.1c3.2,4.1,6.5,8.2,10.1,11.9c7.1,7.2,16.2,12.5,25.3,16.7c4.6,2.1,9.3,4,14.2,5.5
			c1,0.3,2.1,0.6,3.1,0.9c1.8,0.5,3.4,0.8,5.3,1c1,0.1,2.1,0.3,3.1,0.4c0.6,0.1,1.1,0,1.7,0c1.8,0,3-0.5,4.6-1.2
			c-0.5,0.2-1.1,0.5-1.6,0.7c1.2-0.2,2.3-0.5,3.4-1.1c-1,0.4-1.2,0.5-0.6,0.3c1-0.4,1.7-0.7,2.5-1.4c0.6-0.6,1.2-1.5,1.4-2.3
			c0.2-0.9,0.1-1.8-0.1-2.6c-0.2-0.9-0.7-1.6-1.3-2.2c-0.4-0.3-0.8-0.9,0.2,0.5c-0.9-1.2-1.4-1.8-2.7-2.6c-0.4-0.3-0.8-0.5-1.1-0.8
			c0.5,0.4,0.9,0.7,1.4,1.1c-2.2-2.5-5.9-3.3-8.9-4.5c-2.2-0.9-4.7-1.4-7-2.1c-4.5-1.5-9-3-13.4-4.8c0.6,0.3,1.3,0.5,1.9,0.8
			c-5.3-2.3-10.5-4.9-15.4-8c-4.9-3-9.8-5.9-14.3-9.4c0.4,0.3,0.8,0.6,1.2,0.9c-1.3-1-2.6-2.1-3.8-3.2c-0.6-0.5-1.1-1.1-1.7-1.6
			c-0.5-0.5-1.1-0.9-1.7-1.4c-0.3-0.2-1.6-1.2-0.4-0.3c-0.8-0.6-1.7-1.3-2.5-1.9c-0.3-0.2-0.6-0.4-0.9-0.6c-0.1-0.1-0.3-0.2-0.4-0.3
			c0.7,0.5,0-0.1-0.2-0.2c-1.3-1.2-2.6-2.4-3.9-3.6C267.8,320.8,264.7,322.3,265.5,324.5L265.5,324.5z"/>
		<path class="st3" d="M273.4,332.6c-8.8,4.5-25.9-1.6-28.8-11.5c-2.5-8.6,4.4-16.9,8.7-23.3c2.6,5.2,11.5,8.1,15.6,13
			c4.3,5.1,7.1,13.6,5.7,20.1"/>
		<path class="st3" d="M279.2,314.7c5.8-5.7,15.4-7.6,22.9-9.1c1.8,8.1,1.4,15.3-3.8,22.5c-2.5,3.5-6.6,7.2-10.9,8.1
			C274.1,339,271.4,322.3,279.2,314.7z"/>
		<path class="st2" d="M191.3,366.7c13.8,1.6,15.6,20.3,2.9,24.7c-7.6,2.6-15.6,1.6-23.1,0.9c2.5-7.4,4.7-15.2,10-21
			C183.6,368.5,187.3,366.3,191.3,366.7z"/>
		<path class="st3" d="M206.5,366.9c9.6,2.5,18.4,18.4,13.9,27.7c-3.9,8.1-14.5,9.8-21.9,11.7c1.5-5.6-3.2-13.7-3-20
			c0.2-6.6,3.7-14.9,9-18.9"/>
		<path class="st3" d="M190.4,376.5c-8.1,0.4-16.6-4.5-23.2-8.3c4.1-7.3,9.1-12.4,17.7-14.3c4.2-1,9.7-1,13.5,1.2
			C210.3,361.7,201.2,375.9,190.4,376.5z"/>
	</g>
</g>
<g>
	<path class="st0" d="M572.5,461.1c15.8-1.7,33.7-0.8,45.1,10.1c4.3,4.1,11.2,10.6,12.6,16.4c1.5,6.4-1.7,9.1-5.6,15.4
		c-9.9,16-15.4,18.1-33.4,19.9c-5.8,0.6-16.5,3.2-22.2,0.8c-5.8-2.4-15.1-14.2-19.1-19.2c-7.4-9.2-5.4-11.2,1.4-20.8
		c5.4-7.6,12.8-15.6,17.5-22.4"/>
	<path class="st0" d="M501.3,429c15.8-1.7,33.7-0.8,45.1,10.1c4.3,4.1,11.2,10.6,12.6,16.4c1.5,6.4-1.7,9.1-5.6,15.4
		c-9.9,16-15.4,18.1-33.4,19.9c-5.8,0.6-16.5,3.2-22.2,0.8c-5.8-2.4-15.1-14.2-19.1-19.2c-7.4-9.2-5.4-11.2,1.4-20.8
		c5.4-7.6,12.8-15.6,17.5-22.4"/>
	<path class="st0" d="M504.3,360.8c15.8-1.7,33.7-0.8,45.1,10.1c4.3,4.1,11.2,10.6,12.6,16.4c1.5,6.4-1.7,9.1-5.6,15.4
		c-9.9,16-15.4,18.1-33.4,19.9c-5.8,0.6-16.5,3.2-22.2,0.8c-5.8-2.4-15.1-14.2-19.1-19.2c-7.4-9.2-5.4-11.2,1.4-20.8
		c5.4-7.6,12.8-15.6,17.5-22.4"/>
	<path class="st0" d="M646.2,424.9c15.8-1.7,33.7-0.8,45.1,10.1c4.3,4.1,11.2,10.6,12.6,16.4c1.5,6.4-1.7,9.1-5.6,15.4
		c-9.9,16-15.4,18.1-33.4,19.9c-5.8,0.6-16.5,3.2-22.2,0.8c-5.8-2.4-15.1-14.2-19.1-19.2c-7.4-9.2-5.4-11.2,1.4-20.8
		c5.4-7.6,12.8-15.6,17.5-22.4"/>
	<path class="st0" d="M575.1,392.9c15.8-1.7,33.7-0.8,45.1,10.1c4.3,4.1,11.2,10.6,12.6,16.4c1.5,6.4-1.7,9.1-5.6,15.4
		c-9.9,16-15.4,18.1-33.4,19.9c-5.8,0.6-16.5,3.2-22.2,0.8c-5.8-2.4-15.1-14.2-19.1-19.2c-7.4-9.2-5.4-11.2,1.4-20.8
		c5.4-7.6,12.8-15.6,17.5-22.4"/>
	<path class="st0" d="M647.6,356.4c15.8-1.7,33.7-0.8,45.1,10.1c4.3,4.1,11.2,10.6,12.6,16.4c1.5,6.4-1.7,9.1-5.6,15.4
		c-9.9,16-15.4,18.1-33.4,19.9c-5.8,0.6-16.5,3.2-22.2,0.8c-5.8-2.4-15.1-14.2-19.1-19.2c-7.4-9.2-5.4-11.2,1.4-20.8
		c5.4-7.6,12.8-15.6,17.5-22.4"/>
	<path class="st0" d="M575.8,324.3c15.8-1.7,33.7-0.8,45.1,10.1c4.3,4.1,11.2,10.6,12.6,16.4c1.5,6.4-1.7,9.1-5.6,15.4
		c-9.9,16-15.4,18.1-33.4,19.9c-5.8,0.6-16.5,3.2-22.2,0.8c-5.8-2.4-15.1-14.2-19.1-19.2c-7.4-9.2-5.4-11.2,1.4-20.8
		c5.4-7.6,12.8-15.6,17.5-22.4"/>
	<g>
		<path class="st1" d="M577.7,331.8c-7.5,4.7-18.7,15.9-17.8,25.2c0.9,15,21.5,23.4,34.6,20.6c15.9-3.7,31.8-23.4,19.6-37.4
			c-7.5-8.4-27.1-12.1-36.4-6.5"/>
	</g>
	<g>
		<path class="st1" d="M651.5,365c-7.5,4.7-18.7,15.9-17.8,25.2c0.9,15,21.5,23.4,34.6,20.6c15.9-3.7,31.8-23.4,19.6-37.4
			c-7.5-8.4-27.1-12.1-36.4-6.5"/>
	</g>
	<g>
		<path class="st1" d="M579,401.5c-7.5,4.7-18.7,15.9-17.8,25.2c0.9,15,21.5,23.4,34.6,20.6c15.9-3.7,31.8-23.4,19.6-37.4
			c-7.5-8.4-27.1-12.1-36.4-6.5"/>
	</g>
	<g>
		<path class="st1" d="M505.2,437.6c-7.5,4.7-18.7,15.9-17.8,25.2c0.9,15,21.5,23.4,34.6,20.6c15.9-3.7,31.8-23.4,19.6-37.4
			c-7.5-8.4-27.1-12.1-36.4-6.5"/>
	</g>
	<g>
		<path class="st1" d="M505.2,369.4c-7.5,4.7-18.7,15.9-17.8,25.2c0.9,15,21.5,23.4,34.6,20.6c15.9-3.7,31.8-23.4,19.6-37.4
			c-7.5-8.4-27.1-12.1-36.4-6.5"/>
	</g>
	<g>
		<path class="st1" d="M575.3,469.7c-7.5,4.7-18.7,15.9-17.8,25.2c0.9,15,21.5,23.4,34.6,20.6c15.9-3.7,31.8-23.4,19.6-37.4
			c-7.5-8.4-27.1-12.1-36.4-6.5"/>
	</g>
	<g>
		<path class="st1" d="M646.4,433.6c-7.5,4.7-18.7,15.9-17.8,25.2c0.9,15,21.5,23.4,34.6,20.6c15.9-3.7,31.8-23.4,19.6-37.4
			c-7.5-8.4-27.1-12.1-36.4-6.5"/>
	</g>
</g>
<g>
	<path class="st5" d="M878.5,362.2c8.4,0.5,16.6,0.3,24.7-0.2c2.7-0.2,5.4-0.3,8.1-0.5c2.5-0.3,5.2-0.7,8-1c2.2,0,4.6-0.3,7.1-0.5
		c20-2.9,23.1,19.6,26.6,34.4c3,13.2,6.4,26.6,10.7,39.5c3.9,11.9,4,24.8,3.2,37.2c-0.1,2.2-0.4,4.3-0.7,6.5
		c-3.9,25.1-21.5,36.5-44.6,41.4c-31.1,6.5-66.2,8.9-96.6,0c-29.4-8.6-36.6-34.8-33.7-61.4c0.3-2.7,0.7-5.3,1.2-8
		c2.3-12.8,5-24.6,8.9-37.2c4.1-13.2,5-28.5,11.2-40.9c0.9-1.9,2.3-4.2,4.2-5.6c3.3-2.8,7-4.1,11-4.7c8.1-1.2,17.2,0.5,25.3-0.5
		c2.1,0,4.2,0.1,6.3,0.2C865.6,361.4,872,361.9,878.5,362.2z"/>
	<path class="st4" d="M847.1,342.3c-11.1,0-68.1-5-51,26.7c4.5,8.4,15.4,5.8,22.9,6.6c31.9,3.6,63.6-0.9,95.7-0.9
		c9.2,0,33.6,5.6,38.7-5.3C971.6,330,856.2,342.3,847.1,342.3z"/>
	<path class="st0" d="M874.1,388c-15.2-1.4-30.5-6.8-45.9-4.7c-7.7,1-7.8,2.9-10.5,10.1c-5.2,13.7-10.3,27.7-14.4,41.8
		c-4.2,14.6-6.9,33-3.5,48.1c5.3,23.9,27.1,24.9,45.5,32.1c17.3,6.8,31.9,6.7,50.5,4.2c20.2-2.7,44.3-9.4,56.3-28.1
		c6.9-10.8,6.5-20.4,6-32.5c-0.6-14.2-2.6-28.3-6.7-41.8c-2-6.7-4.8-13-7-19.5c-1.7-5-4.1-11.8-9.1-14.3c-6.6-3.4-18.7,0.8-25.6,1.8
		C897.8,386.7,886.2,389.1,874.1,388z"/>
	<path class="st6" d="M831.4,431.8c-8.3,1-23.5-2.4-29.7,6.2c-8.1,11.2-9.8,47.1,0.9,56.3c9.8,8.4,27.6,3.7,38.8,3.4
		c30.4-0.7,60.4-0.4,90.3-6.5c16.7-3.4,31.9-6.1,31.6-30.9c-0.2-15.3-2.6-36.5-16.7-39.7c-10.6-2.4-22.8,2.1-33.2,3.4
		c-15.8,1.9-31.6,3.3-47.4,4.8C854.5,429.7,842.8,430.4,831.4,431.8z"/>
	<path class="st6" d="M804.5,437c7.7-4.3,8.7-12.2,12.3-19.5c4.2-8.4,10.1-14.9,17.4-20.7c12.7-9.9,29.8-12,45.5-11.8
		c26.4,0.2,52.3,24.5,65.9,45.5"/>
	<path class="st6" d="M955.1,456.7c-7.2,5.1-7.2,13.2-9.9,20.8c-3.2,8.8-8.3,16-14.9,22.6c-11.5,11.3-28.2,15.4-43.8,17.1
		c-26.3,2.9-54.8-18.2-70.8-37.5"/>
	<g>
		<path class="st0" d="M851.6,432.6c4.5-0.5,9.5-0.2,12.7,2.8c1.2,1.2,3.2,3,3.5,4.6c0.4,1.8-0.5,2.6-1.6,4.3
			c-2.8,4.5-4.3,5.1-9.4,5.6c-1.6,0.2-4.6,0.9-6.3,0.2c-1.6-0.7-4.3-4-5.4-5.4c-2.1-2.6-1.5-3.1,0.4-5.9c1.5-2.1,3.6-4.4,4.9-6.3"/>
		<path class="st0" d="M831.5,423.6c4.5-0.5,9.5-0.2,12.7,2.8c1.2,1.2,3.2,3,3.5,4.6c0.4,1.8-0.5,2.6-1.6,4.3
			c-2.8,4.5-4.3,5.1-9.4,5.6c-1.6,0.2-4.6,0.9-6.3,0.2c-1.6-0.7-4.3-4-5.4-5.4c-2.1-2.6-1.5-3.1,0.4-5.9c1.5-2.1,3.6-4.4,4.9-6.3"/>
		<path class="st0" d="M832.4,404.3c4.5-0.5,9.5-0.2,12.7,2.8c1.2,1.2,3.2,3,3.5,4.6c0.4,1.8-0.5,2.6-1.6,4.3
			c-2.8,4.5-4.3,5.1-9.4,5.6c-1.6,0.2-4.6,0.9-6.3,0.2c-1.6-0.7-4.3-4-5.4-5.4c-2.1-2.6-1.5-3.1,0.4-5.9c1.5-2.1,3.6-4.4,4.9-6.3"/>
		<path class="st0" d="M872.4,422.4c4.5-0.5,9.5-0.2,12.7,2.8c1.2,1.2,3.2,3,3.5,4.6c0.4,1.8-0.5,2.6-1.6,4.3
			c-2.8,4.5-4.3,5.1-9.4,5.6c-1.6,0.2-4.6,0.9-6.3,0.2c-1.6-0.7-4.3-4-5.4-5.4c-2.1-2.6-1.5-3.1,0.4-5.9c1.5-2.1,3.6-4.4,4.9-6.3"/>
		<path class="st0" d="M852.3,413.4c4.5-0.5,9.5-0.2,12.7,2.8c1.2,1.2,3.2,3,3.5,4.6c0.4,1.8-0.5,2.6-1.6,4.3
			c-2.8,4.5-4.3,5.1-9.4,5.6c-1.6,0.2-4.6,0.9-6.3,0.2c-1.6-0.7-4.3-4-5.4-5.4c-2.1-2.6-1.5-3.1,0.4-5.9c1.5-2.1,3.6-4.4,4.9-6.3"/>
		<path class="st0" d="M872.8,403.1c4.5-0.5,9.5-0.2,12.7,2.8c1.2,1.2,3.2,3,3.5,4.6c0.4,1.8-0.5,2.6-1.6,4.3
			c-2.8,4.5-4.3,5.1-9.4,5.6c-1.6,0.2-4.6,0.9-6.3,0.2c-1.6-0.7-4.3-4-5.4-5.4c-2.1-2.6-1.5-3.1,0.4-5.9c1.5-2.1,3.6-4.4,4.9-6.3"/>
		<path class="st0" d="M852.5,394.1c4.5-0.5,9.5-0.2,12.7,2.8c1.2,1.2,3.2,3,3.5,4.6c0.4,1.8-0.5,2.6-1.6,4.3
			c-2.8,4.5-4.3,5.1-9.4,5.6c-1.6,0.2-4.6,0.9-6.3,0.2c-1.6-0.7-4.3-4-5.4-5.4c-2.1-2.6-1.5-3.1,0.4-5.9c1.5-2.1,3.6-4.4,4.9-6.3"/>
		<g>
			<path class="st1" d="M853,396.2c-2.1,1.3-5.3,4.5-5,7.1c0.3,4.2,6.1,6.6,9.7,5.8c4.5-1.1,9-6.6,5.5-10.5
				c-2.1-2.4-7.6-3.4-10.3-1.8"/>
		</g>
		<g>
			<path class="st1" d="M873.9,405.5c-2.1,1.3-5.3,4.5-5,7.1c0.3,4.2,6.1,6.6,9.7,5.8c4.5-1.1,9-6.6,5.5-10.5
				c-2.1-2.4-7.6-3.4-10.3-1.8"/>
		</g>
		<g>
			<path class="st1" d="M853.4,415.8c-2.1,1.3-5.3,4.5-5,7.1c0.3,4.2,6.1,6.6,9.7,5.8c4.5-1.1,9-6.6,5.5-10.5
				c-2.1-2.4-7.6-3.4-10.3-1.8"/>
		</g>
		<g>
			<path class="st1" d="M832.6,426c-2.1,1.3-5.3,4.5-5,7.1c0.3,4.2,6.1,6.6,9.7,5.8c4.5-1.1,9-6.6,5.5-10.5
				c-2.1-2.4-7.6-3.4-10.3-1.8"/>
		</g>
		<g>
			<path class="st1" d="M832.6,406.8c-2.1,1.3-5.3,4.5-5,7.1c0.3,4.2,6.1,6.6,9.7,5.8c4.5-1.1,9-6.6,5.5-10.5
				c-2.1-2.4-7.6-3.4-10.3-1.8"/>
		</g>
		<g>
			<path class="st1" d="M852.4,435c-2.1,1.3-5.3,4.5-5,7.1c0.3,4.2,6.1,6.6,9.7,5.8c4.5-1.1,9-6.6,5.5-10.5
				c-2.1-2.4-7.6-3.4-10.3-1.8"/>
		</g>
		<g>
			<path class="st1" d="M872.4,424.8c-2.1,1.3-5.3,4.5-5,7.1c0.3,4.2,6.1,6.6,9.7,5.8c4.5-1.1,9-6.6,5.5-10.5
				c-2.1-2.4-7.6-3.4-10.3-1.8"/>
		</g>
	</g>
	<g>
		<path class="st7" d="M934.9,427.7c-0.8-1-2.1-2-1-3.3c0.7-0.8,2-1,2.9-1.5c2-1,4-1.9,6.1-2.6c2.2-0.8,4.7-1.7,7.1-1.3
			c4.3,0.8,6.1,5.6,3.4,9c-2.5,3.2-7.7,4.1-11.5,3c-1.7-0.5-3.4-1.2-5-2C936.1,428.7,935.4,428.3,934.9,427.7z"/>
		<path class="st7" d="M917.6,432.1c2.3-4.9-4.2-4.6-7.2-4.6c-2.3,0-4.7,0.2-6.9,0.8c-0.3,0.1-0.6,0.2-1,0.3c-3,0.6-5.3,3.2-4.8,6.3
			c0.6,3.1,3.7,4.4,6.6,4.3c0.4,0,0.8-0.1,1.2-0.1c4.1-0.7,8.6-2.1,11.1-5.6c0.2-0.2,0.4-0.5,0.5-0.7
			C917.4,432.6,917.5,432.3,917.6,432.1z"/>
		<path class="st8" d="M896.3,414c-2.7,0.2-5.7,1.8-6.1,4.7c-0.1,1.1,0.1,2.3,0.6,3.3c0.1,0.3,0.3,0.6,0.5,0.9
			c0.8,1.1,1.8,2.1,2.9,2.8c4.6,2.9,10.5,3.7,15.9,3.9c2.6,0.1,6.4,0,8.6-1.8c4.1-3.5-1.6-5.7-3.9-7.3c-1.1-0.7-2.1-1.3-3.2-1.9
			c-0.4-0.2-0.7-0.4-1.1-0.6c-3.3-1.6-6.7-3.4-10.3-3.9c-0.4-0.1-0.8-0.1-1.3-0.1c-0.4,0-0.8,0-1.3,0
			C897.1,413.9,896.7,413.9,896.3,414z"/>
		<path class="st8" d="M933.3,411.9c2.9-3.7,11.4-11.3,15.9-5.7c3.6,4.5,1.5,10-2.4,13.3c-2.6,2.3-5.9,3.8-9.2,5.1
			c-1.9,0.7-3.8,1.5-5.8,1.5c-1.2,0-2.4-0.5-3.1-1.6c-0.9-1.4-0.3-2.5,0.1-3.9c0.3-1,0.5-2.1,0.9-3.1
			C930.7,415.5,931.9,413.6,933.3,411.9z"/>
		<path class="st0" d="M938.5,435.2c-0.1,1-0.4,2.1-0.9,3.2c-1.7,3.8-4.7,6.3-8.9,5.5c-1.4-0.3-2.8-0.8-4.2-1.6
			c-2.7-1.5-5.1-3.9-6.8-6.4c-0.6-0.8-1-1.6-1.4-2.5c-0.8-1.6-1.2-3.2-1.3-4.9c0-0.7,0-1.4,0-2.1c0.2-1.8,0-3.2,1.6-4.3
			c3.4-2.4,8-2.7,12-2.2c2.7,0.4,4.7,1.5,6.2,3.4c0.6,0.7,1.1,1.6,1.5,2.6c0.4,1,0.9,2,1.2,2.9C938.4,430.9,938.8,433,938.5,435.2z"
			/>
		<path class="st9" d="M909.7,412.4c-0.7,2.5-0.6,5.4,0.5,7.8c1.3,2.8,4.3,4.1,7.1,4.8c6.7,1.6,14.5-1.7,16.2-8.9
			c0.6-2.8,0-6.2-2-8.3c-1.6-1.7-3.9-2.7-6.2-3c-3-0.4-7.2-0.6-10,0.8C912.7,407,910.5,409.6,909.7,412.4z"/>
		<g>
			<path class="st6" d="M928.5,417.7c3.1-0.7,4-4.7,2.4-7.1c-1.8-2.9-6.6-1.7-7.7,1.2c-0.8,2.2,0.1,4.6,2.3,5.5
				C926.6,417.8,927.6,417.9,928.5,417.7z"/>
			<path d="M927.8,411c-1.6-1.7-4.4-0.4-4.1,2c0.3,2.1,3.2,2.8,4.3,0.9C928.5,412.9,928.6,411.8,927.8,411z"/>
			<path class="st6" d="M925.8,411.6c-0.1-0.8-1.3-1-1.6-0.2c-0.3,0.6,0,1.3,0.7,1.3C925.5,412.5,925.9,412.2,925.8,411.6z"/>
		</g>
		<g>
			<path class="st6" d="M916,417c2.7-0.6,3.4-4,2.1-6.2c-1.6-2.5-5.7-1.5-6.7,1.1c-0.7,1.9,0.1,4,2,4.8
				C914.3,417.1,915.2,417.2,916,417z"/>
			<path d="M915.3,411.1c-1.4-1.5-3.8-0.3-3.5,1.7c0.3,1.8,2.8,2.5,3.7,0.8C916,412.8,916.1,411.9,915.3,411.1z"/>
			<path class="st6" d="M913.7,411.7c-0.1-0.7-1.1-0.8-1.4-0.2c-0.2,0.5,0,1.2,0.6,1.1C913.3,412.5,913.7,412.2,913.7,411.7z"/>
		</g>
		<path class="st10" d="M916.3,420.9c0.3,0.5,1.1,0.8,1.6,0.9c0.7,0.2,1.4,0.3,2.1,0.4c1.3,0,2.9-0.4,3.6-1.7
			c0.2-0.4-0.4-0.8-0.7-0.4c-0.6,1.2-1.8,1.5-3,1.5c-0.6,0-1.3-0.1-1.9-0.3c-0.3-0.1-0.5-0.2-0.8-0.3c-0.2-0.1-0.5-0.3-0.7-0.4
			C916.3,420.6,916.2,420.7,916.3,420.9L916.3,420.9z"/>
		<path class="st9" d="M925.1,406.1c0.2-0.2,0.3-0.5,0.4-0.7c0.1-0.2,0.3-0.5,0.4-0.7c0.4-0.5,0.9-0.8,1.5-1.1
			c0.5-0.3,1.1-0.5,1.7-0.6c0.4-0.1,1.4-0.5,0.9-1c-0.4-0.4-1.3-0.1-1.8,0.1c-0.6,0.2-1.3,0.5-1.8,0.9c-0.6,0.4-1.1,0.8-1.5,1.3
			c-0.4,0.5-0.7,1.2-0.4,1.8C924.6,406.2,924.9,406.3,925.1,406.1L925.1,406.1z"/>
		<path class="st9" d="M916.7,405.6c-0.1-0.8-1.1-1.5-1.8-1.9c-0.4-0.2-0.9-0.4-1.3-0.6c-0.5-0.2-1.1-0.3-1.6-0.2
			c-0.4,0.1-0.6,0.8-0.1,1c0.4,0.2,0.9,0.2,1.3,0.4c0.4,0.1,0.8,0.3,1.1,0.5c0.7,0.4,1.1,0.9,1.7,1.4
			C916.4,406.4,916.8,405.9,916.7,405.6L916.7,405.6z"/>
		<path class="st9" d="M912,402.5c-0.2-0.4-0.8-0.5-1.3-0.3c-0.6,0.2-1,0.6-1,1.2c-0.2,1.2,1.1,1.7,2.1,1.4c0.5-0.1,0.9-0.5,1.1-1
			c0.2-0.5,0-1.1-0.4-1.4c-0.9-0.6-2.2,0.2-2.4,1.2c-0.1,0.4,0.2,0.8,0.6,0.8c0.5,0,1.3,0,1.3-0.7c0-0.7-0.9-0.5-1.3-0.5
			c0.2,0.3,0.4,0.5,0.6,0.8c0-0.1,0.1-0.2,0.3-0.3c0.1-0.1,0.1-0.1,0.3-0.1c0,0,0.2,0,0.1,0c0.1,0-0.1-0.1,0,0
			c-0.1,0-0.1-0.1-0.1-0.1c0.1,0.1,0-0.1,0,0.1c0-0.1,0,0.1,0,0.1c0-0.1,0,0.1,0,0.1c0.1-0.1-0.1,0.1-0.1,0.1c0,0-0.2,0.1-0.2,0.1
			c-0.3,0.1-0.7,0.1-0.7-0.3c0-0.5,0.7-0.4,1-0.4C912,402.9,912.1,402.7,912,402.5L912,402.5z"/>
		<path class="st9" d="M931,401.7c-0.1-0.2-0.3-0.3-0.6-0.3c-0.2,0-0.4,0.1-0.6,0.2c-0.4,0.3-0.5,0.6-0.5,1.1c0.2,1.1,1.7,1,2.3,0.4
			c0.3-0.4,0.4-0.9,0.1-1.4c-0.4-0.5-1-0.6-1.6-0.5c-0.5,0.1-0.9,0.4-1.1,0.8c-0.1,0.3,0,0.8,0.2,1.1c0.3,0.4,0.8,0.7,1.3,0.7
			c0.7,0,1.1-0.6,1.3-1.2c0.1-0.2,0-0.6-0.3-0.7c-0.3-0.1-0.6-0.2-0.9-0.1c-0.1,0.1-0.2,0.2-0.3,0.3c0,0,0,0,0,0
			c0,0-0.1,0.1-0.1,0.1c-0.4,0.3,0,1,0.5,0.8c0.1,0,0.2-0.1,0.3-0.1c-0.1,0.1-0.2,0-0.3,0c0.1,0,0.2,0.1,0.2,0.1
			c-0.1-0.2-0.2-0.4-0.3-0.7c0,0.1,0,0.2-0.1,0.3c0.1-0.2-0.2,0.2,0,0c0,0,0,0-0.1,0.1c-0.1,0.1,0.1-0.1,0,0c0,0-0.1,0.1,0,0
			c0,0-0.1,0-0.1,0c0.2,0-0.1,0,0.1,0c-0.1,0-0.3-0.1-0.1,0c-0.1,0-0.1-0.1-0.2-0.1c0.2,0.1,0,0,0-0.1c0,0,0,0,0,0
			c0,0,0-0.1-0.1-0.1c0,0-0.1-0.1,0,0c0,0,0-0.1,0-0.1c0-0.1,0,0.2,0,0c0,0.2,0,0.1,0,0c0-0.1-0.1,0.1,0,0c0,0,0,0,0,0
			c0,0,0.1-0.1,0,0c0,0,0.1,0,0.1-0.1c0.1-0.1-0.1,0,0,0c0.2-0.1,0.3-0.1,0.6-0.1c-0.1,0-0.1,0,0,0c0.1,0-0.1-0.1,0,0
			c0.1,0.1-0.1-0.1,0,0c0.1,0.1-0.1-0.1,0,0c0-0.1,0-0.1,0,0c0,0.1,0-0.1,0,0c0,0,0,0,0,0c0-0.1,0-0.1,0,0.1c0-0.2,0,0.1,0-0.1
			c0,0,0,0,0,0.1c-0.1,0.1,0.1-0.1,0,0c0,0-0.1,0.1,0,0c0,0-0.1,0-0.1,0.1c0.1,0-0.1,0-0.1,0c-0.1,0,0.1,0-0.1,0c-0.1,0-0.1,0-0.2,0
			c-0.2,0,0.1,0-0.1,0c0,0-0.1,0,0,0c-0.1-0.1,0,0.1,0,0c-0.1-0.1,0,0.1,0,0c0-0.1,0,0.1,0,0c0,0,0-0.1,0,0c0,0,0-0.1,0-0.1
			c0,0.1,0,0,0,0c0,0,0.1-0.2,0.1-0.1c0,0,0.1,0,0.1-0.1c0.1,0,0.1,0,0.2,0c0.1,0,0.1-0.1,0.2-0.1c-0.1,0.1-0.1,0,0,0
			C931,402,931.1,401.8,931,401.7L931,401.7z"/>
		<path class="st9" d="M937.6,428.7c0,0.1-0.1,0.1-0.1,0.2c-3.5,4.5-9.3,7.1-15,7.3c-1.3,0-3.1-0.1-4.8-0.4c-0.6-0.8-1-1.6-1.4-2.5
			c-0.8-1.6-1.2-3.2-1.3-4.9c3.8,2.2,9.7,1.5,13.6,0.1c2.3-0.8,4.2-1.9,5.5-4c0.2-0.4,0.5-0.8,0.8-1.3c0.6,0.7,1.1,1.6,1.5,2.6
			C936.8,426.8,937.2,427.8,937.6,428.7z"/>
		<path class="st9" d="M938.5,435.2c-0.1,1-0.4,2.1-0.9,3.2c-1.7,3.8-4.7,6.3-8.9,5.5c-1.4-0.3-2.8-0.8-4.2-1.6
			c3-0.3,6.2-1.4,8.4-2.5C935.3,438.4,937,437,938.5,435.2z"/>
		<path class="st9" d="M935.6,445.4c-0.1-0.5-0.6-1.1-0.9-1.7c-0.3-0.6-0.6-1.2-1-1.7c-0.5-0.7-1.5-0.1-1.1,0.6
			c0.3,0.6,0.7,1.2,1,1.8c0.3,0.6,0.7,1.3,1.4,1.5C935.4,446,935.7,445.7,935.6,445.4L935.6,445.4z"/>
	</g>
	<g>
		<path class="st0" d="M815.3,456.4c0,4.2,0.6,8.3,0.7,12.5c0.1,2.2,0.1,4.5,0.3,6.7c0.2,2,0.1,4.1,1.8,5.6c1.2,1.1,3,0.4,3.5-0.8
			c0.8-1.7-0.1-3.8-0.4-5.6c-0.3-2.2-0.5-4.5-0.7-6.7c-0.3-4-0.4-8.4-2.1-12.1C817.9,454.6,815.3,454.8,815.3,456.4L815.3,456.4z"/>
		<path class="st0" d="M817.4,469.2c2.9,0.4,6.3-0.3,9.2-0.3c1.6,0,3.2,0,4.9,0c1.5,0,3,0.2,4.1-0.9c0.5-0.5,0.5-1.1,0-1.7
			c-0.9-0.9-1.9-0.9-3.3-0.9c-1.9,0-3.8,0-5.7,0.1c-3,0.1-6.9,0-9.6,1.2C815.8,467.1,816,469,817.4,469.2L817.4,469.2z"/>
		<path class="st0" d="M832.5,454.9c-0.1,2,0.5,4.1,0.7,6.1c0.2,2.3,0.4,4.5,0.4,6.8c0,4.2,0.3,8.6,1.4,12.7
			c0.6,2.3,5.3,1.8,4.9-0.6c-0.6-4.3-1-8.6-1.6-12.9c-0.6-4-0.6-9.2-3.3-12.7C834.1,453.4,832.5,453.8,832.5,454.9L832.5,454.9z"/>
		<path class="st0" d="M857.8,456.7c-2-0.2-3.5-0.5-5.4,0.2c-1.9,0.8-3.6,2-5.1,3.3c-3.1,2.8-5.2,6.1-5.7,10
			c-0.6,3.9,0.9,7.7,4.6,10.1c4.4,2.9,10.3,3.4,15.3,1.5c4.9-1.9,8.3-6,9.3-10.5c0.8-3.7-0.9-7.9-3.1-11c-2.4-3.4-6.4-5.9-11.1-5
			c-2.5,0.5-4.8,3.4-2.7,5.3c0.9,0.8,2.4,1.1,3.7,0.8c0.8-0.1,1.2-0.3,1.3-0.2c3.1,1.1,5.2,6.3,4.5,8.9c-1.2,4.4-6.2,7.4-11.3,6
			c-4.6-1.3-5.1-5.6-3.9-9c0.7-2.1,1.9-3.9,3.6-5.4c1.4-1.2,4.2-3.1,6.2-3.4C859.2,458.2,858.8,456.8,857.8,456.7L857.8,456.7z"/>
		<path class="st0" d="M879.4,479.9c-0.3-7.6-1.2-15.2-0.3-22.8c-1.2,0.4-2.3,0.8-3.5,1.2c7.1,5.4,15,11.7,17.6,19.8
			c0.9,2.7,5.4,1.5,4.8-1.1c-1.5-7.5-1.3-15.2-2.5-22.8c-0.4-2.6-5.5-2-5.3,0.6c0.5,7.8,1,15.7,2.9,23.3c1.6-0.4,3.2-0.8,4.8-1.1
			c-3.2-9-11.6-15.1-19.5-21.1c-1.4-1.1-3.3-0.3-3.5,1.2c-0.9,7.7,0,15.5,1.5,23.1C876.8,481.6,879.4,481.3,879.4,479.9L879.4,479.9
			z"/>
		<path class="st0" d="M900.8,453.4c-0.4,3.8,1,7.9,1.9,11.6c0.9,4,1.6,7.9,1.8,11.9c0.2,2.7,4.8,2.7,4.9,0
			c0.1-3.9-0.9-7.8-1.9-11.6c-1.1-4.1-1.8-8.4-3.2-12.3C903.8,451.2,901,451.7,900.8,453.4L900.8,453.4z"/>
		<path class="st0" d="M902.7,454.3c-0.4,0,0.5,0.2,0.6,0.3c0.5,0.1,1.1,0.1,1.6,0.1c1.3,0,2.6-0.2,3.9-0.3c2-0.2,5.5,0.6,7.1-0.7
			c0.6-0.5,0.6-1.2,0.3-1.9c-1-1.9-4.8-1.4-6.7-1.2c-1.5,0.1-3,0.3-4.5,0.6c-1.3,0.3-1.9,0.9-2.9,1.4
			C901.1,453,901.6,454.3,902.7,454.3L902.7,454.3z"/>
		<path class="st0" d="M905,467.4c1.8,0.3,3.5,0.1,5.2,0c1.8-0.1,3.6,0,5.4-0.3c1.8-0.4,1.8-2.7,0-3.1c-3.3-0.7-8.2-0.4-11,1.3
			C903.8,465.8,903.7,467.2,905,467.4L905,467.4z"/>
		<path class="st0" d="M904.6,478.8c1.1,2.3,6,1.3,8.2,1.1c2.7-0.3,7.2-0.1,8.7-2.4c0.3-0.4,0.2-1-0.2-1.4
			c-2.5-1.9-7.1-0.2-10.1,0.1C910,476.3,903.5,476.4,904.6,478.8L904.6,478.8z"/>
		<path class="st0" d="M920.7,451.5c1,2.1,2.2,3.3,4.3,4.6c2.4,1.6,5,2.9,7.6,4.3c1.2,0.6,2.4,0.1,3.2-0.7c1.7-1.9,3.4-3.9,5-6
			c1.3-1.7,2.8-3.1,1.9-5.1c-0.1-0.3-0.4-0.6-0.9-0.6c-2.5,0-3.3,1.5-4.7,3.1c-1.7,2.2-3.5,4.4-5.3,6.5c1.1-0.2,2.1-0.5,3.2-0.7
			c-2.2-1.1-4.5-2.1-6.7-3.1c-1.1-0.5-2.1-1.1-3.1-1.7c-1.1-0.6-2.3-1-3.4-1.7C921.1,450,920.4,450.9,920.7,451.5L920.7,451.5z"/>
		<path class="st0" d="M932.6,458.8c-1.3,2.5-0.4,5.9-0.1,8.5c0.4,3.7,0.9,7.4,0.9,11.1c0,2.5,4.6,2.5,4.5,0c0-3.5-0.5-7.1-1-10.6
			c-0.4-2.9-0.3-6.4-1.8-9C934.7,458,933,457.9,932.6,458.8L932.6,458.8z"/>
	</g>
	<path class="st11" d="M843.8,345.8c-3.4,0-6.7-0.1-10.1-0.2c-8.6-0.3-20.6-2.3-27.4,4.9c-4.2,4.5-0.7,7,4.3,7.7
		c9.7,1.4,20.3,0.9,30.1,0.9c23,0,46.1-0.3,69.1,0.9c6.6,0.4,25.5,3.8,29.3-3.7c5.6-11.3-20.2-10.5-24.9-10.7
		C890.7,344.6,867.3,346,843.8,345.8z"/>
</g>
</svg>
